<?xml version="1.0" encoding="UTF-8"?>
<svg enable-background="new 0 0 2332.4 2314.7" version="1.1" viewBox="0 0 2332.4 2314.7" xml:space="preserve" xmlns="http://www.w3.org/2000/svg">
<style type="text/css">
	.st0{fill:#F7931E;}
	.st1{fill:#C1272D;}
</style>
		<path class="st0" d="m1160.3 1156.1s-1.1 4.1-3.2 12-5.6 19.7-10.8 34.8c-1.3 3.8-2.8 7.7-4.3 11.9s-3.3 8.5-5.1 13.1c-3.6 9.1-7.9 19-12.8 29.6-1.2 2.7-2.5 5.3-3.8 8s-2.7 5.5-4 8.3c-1.4 2.8-2.9 5.6-4.4 8.5s-3 5.8-4.7 8.7c-1.6 2.9-3.3 5.9-4.9 8.9-1.7 3-3.5 6-5.3 9.1-0.9 1.5-1.8 3.1-2.7 4.6-0.9 1.6-1.9 3.1-2.9 4.6-1.9 3.1-3.9 6.2-5.9 9.4-8.2 12.6-17.3 25.7-27.4 38.9-2.6 3.3-5.2 6.6-7.8 10-2.7 3.3-5.5 6.6-8.2 10-1.4 1.7-2.8 3.4-4.3 5-1.4 1.7-2.9 3.3-4.4 5-2.9 3.4-6 6.7-9 10.1-24.7 26.8-54 53.6-88.3 78.4-17.1 12.4-35.5 24.3-55 35.5-2.4 1.4-4.9 2.8-7.4 4.1-2.5 1.4-5 2.7-7.5 4.1-5 2.7-10.2 5.3-15.3 7.9-2.6 1.3-5.2 2.5-7.8 3.8s-5.2 2.6-7.9 3.8c-5.4 2.4-10.7 4.9-16.2 7.2-2.7 1.2-5.5 2.3-8.2 3.5l-8.4 3.3c-2.8 1.1-5.6 2.3-8.5 3.3-2.8 1-5.7 2.1-8.6 3.2s-5.8 2.1-8.7 3.1-5.8 2-8.8 3c-3 0.9-5.9 1.9-8.9 2.8s-5.9 1.9-9 2.7c-6 1.7-12.1 3.5-18.2 5.1-3.1 0.8-6.1 1.6-9.2 2.4-3.1 0.7-6.2 1.5-9.3 2.2-1.6 0.4-3.1 0.7-4.7 1.1-1.6 0.3-3.1 0.7-4.7 1-3.2 0.7-6.3 1.3-9.5 2l-9.6 1.8c-3.2 0.6-6.4 1.2-9.7 1.7-25.9 4.2-52.5 7.1-79.8 8l-10.2 0.3c-3.4 0-6.9 0.1-10.3 0.1h-5.2c-1.7 0-3.5-0.1-5.2-0.1-3.5-0.1-6.9-0.1-10.4-0.2s-6.9-0.3-10.4-0.4c-1.7-0.1-3.5-0.1-5.2-0.2s-3.5-0.2-5.2-0.3c-3.5-0.2-7-0.5-10.5-0.7-3.5-0.3-7-0.6-10.5-1-1.8-0.2-3.5-0.3-5.3-0.5s-3.5-0.4-5.3-0.6c-3.5-0.4-7.1-0.8-10.6-1.2-3.5-0.5-7.1-1-10.6-1.5-1.8-0.3-3.5-0.5-5.3-0.8s-3.5-0.6-5.3-0.9c-14.2-2.2-28.4-5.2-42.6-8.4-3.5-0.9-7.1-1.8-10.6-2.6l-5.3-1.3-5.3-1.5c-3.5-1-7.1-2-10.6-3-3.5-1.1-7.1-2.1-10.6-3.2l-2.7-0.8-1.3-0.4c-0.4-0.1-1.4-0.4-1.6-0.5l-5.1-1.7-5.1-1.7-1.3-0.4-1.4-0.5-2.7-1-5.4-2c-1.8-0.7-3.6-1.3-5.4-2-3.5-1.4-7-2.8-10.6-4.2-28-11.5-55.4-25.7-81.4-42.6-26.1-16.9-50.7-36.5-73.5-58.5-45.6-43.9-83.4-97.4-110.1-156.7s-42.5-124.3-45.5-190.6c-1.5-33.1 0.1-66.6 5-99.7 2.4-16.6 5.7-33 9.7-49.3l1.5-6.1 1.7-6.1 1.7-6.1 1.8-6.1 1.8-6.1 2-6.1c1.3-3.9 2.7-7.9 4-11.8 0.6-2 1.5-4 2.2-5.9l2.3-6 2.3-6 1.2-3c0.4-1 0.9-1.9 1.3-2.9 1.7-3.9 3.5-7.7 5.2-11.6l1.3-2.9 0.7-1.5 0.7-1.4 2.9-5.7c2-3.8 3.9-7.6 5.9-11.3l6.4-11.1 3.2-5.5 3.4-5.4 6.9-10.8c2.4-3.5 4.9-7 7.4-10.5l3.7-5.2c0.6-0.9 1.3-1.7 1.9-2.6l2-2.5 7.9-10.1c1.3-1.7 2.8-3.3 4.1-4.9l4.2-4.9c5.5-6.6 11.6-12.7 17.5-18.9 1.5-1.6 3-3.1 4.6-4.5l4.7-4.5 4.7-4.5c0.8-0.7 1.5-1.5 2.4-2.2l2.4-2.1 9.7-8.5c0.8-0.7 1.6-1.4 2.5-2.1l2.5-2 5.1-4 5.1-4c0.9-0.7 1.7-1.4 2.6-2l2.6-1.9 10.5-7.5c0.9-0.6 1.7-1.3 2.6-1.9l2.7-1.8 5.4-3.5 5.4-3.5 2.7-1.8 2.8-1.6 11.2-6.5c0.9-0.5 1.9-1.1 2.8-1.6l2.9-1.5 5.8-3c30.7-16.2 63.7-28.2 97.7-36.2 1.1-0.3 2.1-0.5 3.2-0.8l3.2-0.6 6.4-1.3 6.4-1.3 3.2-0.6 3.2-0.5 13-1.9 3.3-0.5 3.3-0.3 6.5-0.6 6.5-0.6 3.3-0.3c1.1-0.1 2.2-0.1 3.3-0.2l13.4-0.8c4.4-0.3 8.8-0.2 13.2-0.2h6.6c2.2 0 4.4-0.1 6.6 0.1l13.2 0.7c2.2 0.1 4.4 0.2 6.6 0.4l6.6 0.7c4.4 0.5 8.8 0.9 13.1 1.4l13 2 6.5 1c2.2 0.4 4.3 0.9 6.5 1.3l12.9 2.7c2.2 0.4 4.3 1 6.4 1.6l6.4 1.7 6.4 1.7 3.2 0.8 3.5 1.1 12 3.8c4.2 1.5 8.6 3.2 12.8 4.8 4.4 1.5 8.3 3.4 12.5 5.2l6.1 2.7c2 0.9 4 1.9 6 2.9l6 3c2 1 4 1.9 5.9 3.1l11.7 6.6c7.6 4.7 15.2 9.3 22.4 14.6l5.5 3.8c1.8 1.3 3.5 2.7 5.3 4.1l5.3 4.1 2.6 2.1c0.9 0.7 1.7 1.4 2.6 2.2l10.1 8.7 9.7 9.2c12.7 12.5 24.4 26 35 40.3 10.5 14.3 19.8 29.5 28 45.3l3 5.9 1.5 3c0.5 1 0.9 2 1.4 3 1.8 4 3.6 8.1 5.4 12.1 1.6 4.1 3.2 8.2 4.9 12.4l1.2 3.1 1.1 3.1 2.1 6.3 2.1 6.3 1.8 6.4 1.8 6.4c0.3 1.1 0.6 2.1 0.9 3.2l0.8 3.2 3 12.9c0.8 4.3 1.6 8.7 2.4 13 2.8 17.4 4.3 35 4.6 52.5 0.1 17.6-1.2 35.1-3.7 52.3-0.7 4.3-1.4 8.6-2.2 12.9-0.3 2.2-0.9 4.3-1.3 6.4l-1.4 6.4-1.4 6.4-1.7 6.3-1.7 6.3-0.9 3.1s-0.5 1.8-0.6 2.1l-0.5 1.4-1.9 5.7-0.9 2.9c-0.3 1-0.6 1.9-1 3-1.6 4.3-3.3 8.6-5 12.9-1.8 4-3.6 8-5.4 12.1-1.9 4-4 7.9-6 11.8-8.3 15.5-18.1 30.2-29.1 43.7-22 27.1-49.1 49.8-79 66.6-29.9 16.9-62.7 28-96.1 33-33.4 4.9-67.3 3.4-99.4-3.6l-6-1.4c-2-0.5-4-0.9-6-1.5-3.9-1.1-7.9-2.3-11.8-3.4-1.8-0.6-1.2-0.4-2-0.7l-1.3-0.5-2.6-0.9-2.6-0.9-1.3-0.5c-0.4-0.2-0.8-0.3-1.4-0.5l-6.1-2.4-3.1-1.2-1.5-0.6c-0.5-0.2-1-0.4-1.4-0.6-15.2-6.7-29.6-15.1-42.8-24.8-26.5-19.4-48.2-44.3-63.7-72s-24.9-58.1-27.9-88.6c-3.1-30.5 0.4-61 9.2-89l0.4-1.3c0.2-0.7 0.1-0.3 0.6-1.9l0.8-2.3c0.6-1.5 1.1-3.1 1.7-4.6 0.2-0.4 0.2-0.7 0.4-1.2l0.6-1.4 1.1-2.8c0.8-1.8 1.5-3.7 2.3-5.4 3.1-6.8 6.4-13.4 10.3-19.7 7.6-12.7 16.6-24.3 26.8-34.5 1.3-1.3 2.6-2.5 3.8-3.8 1.3-1.2 2.7-2.4 4-3.6s2.6-2.4 4-3.5 2.8-2.3 4.1-3.4c0.7-0.6 1.4-1.1 2.1-1.7l2.1-1.6c1.4-1 2.9-2.1 4.3-3.1s2.9-2 4.4-3 2.9-2 4.4-2.9c11.9-7.4 24.6-13.3 37.5-17.8 25.9-8.9 53.1-11.5 78.8-8.6 3.2 0.4 6.4 0.9 9.6 1.3 3.2 0.6 6.3 1.2 9.4 1.8 3.1 0.8 6.2 1.5 9.2 2.3 1.5 0.5 3 0.9 4.5 1.4l2.3 0.7 1.1 0.3s1.3 0.4 1.5 0.5c1.3 0.5 2.6 1 4 1.4l2 0.7 2.4 1c1.6 0.7 3.1 1.3 4.7 2 1.5 0.7 2.9 1.4 4.3 2.1 2.9 1.3 5.6 2.9 8.4 4.4 1.4 0.7 2.7 1.6 4 2.4s2.7 1.6 4 2.5c20.8 13.7 37.4 32.3 48.3 52.7 5.5 10.2 9.7 20.9 12.5 31.7s4.4 21.7 4.8 32.4-0.6 21.3-2.5 31.3c-0.5 2.5-1 5-1.7 7.5-0.6 2.5-1.2 4.9-2 7.3-0.4 1.2-0.7 2.4-1.1 3.6l-0.4 1.2-0.3 0.8-0.6 1.6-0.6 1.6c-0.2 0.5-0.4 1-0.6 1.7-0.5 1.2-1 2.5-1.6 3.7-0.5 1.3-1.1 2.4-1.6 3.5-0.6 1.1-1.1 2.2-1.7 3.3s-1.2 2.2-1.8 3.2c-0.6 1.1-1.2 2.2-1.9 3.2-0.6 1-1.3 2.1-1.9 3.1-0.7 1-1.4 2-2.1 3-1.3 2-2.8 3.9-4.3 5.8-5.9 7.5-12.7 14-19.9 19.6s-14.9 10-22.7 13.6c-7.8 3.5-15.8 6.1-23.8 7.7-15.9 3.3-31.5 2.9-45.4 0-1.7-0.4-3.5-0.7-5.2-1.2s-3.4-0.8-5-1.4c-0.8-0.3-1.6-0.5-2.4-0.8l-1.2-0.4s-0.6-0.2-0.8-0.3l-0.6-0.2c-0.7-0.3-1.5-0.6-2.2-0.8l-1.1-0.4-1.2-0.5c-1.6-0.7-3.2-1.4-4.7-2.1s-2.9-1.5-4.4-2.3l-2.1-1.2c-0.7-0.4-1.4-0.9-2-1.3-0.7-0.4-1.3-0.8-2-1.3-0.6-0.5-1.3-0.9-1.9-1.4-10.2-7.2-17.9-16-23.5-24.8-2.8-4.4-5-8.8-6.9-13.2-1.8-4.3-3.1-8.6-4.2-12.6-1-4.1-1.6-8-2.1-11.6-0.4-3.7-0.5-7.1-0.5-10.2 0.1-6.3 0.8-11.6 1.7-15.7 0.9-4.2 1.8-7.2 2.5-9.3 0.7-2 1-3.1 1-3.1l4.8 1.5s-0.2 1-0.7 3c-0.4 2-1 4.9-1.4 8.8s-0.6 8.8-0.2 14.6c0.2 2.9 0.7 5.9 1.3 9.2 0.7 3.2 1.5 6.7 2.8 10.2 1.2 3.5 2.8 7.2 4.7 10.8 1.9 3.7 4.2 7.4 7 11 5.5 7.2 12.7 14.1 21.7 19.5 0.6 0.3 1.1 0.7 1.7 1l1.8 0.9 1.8 0.9 1.8 0.9c1.2 0.6 2.5 1.1 3.8 1.6 1.3 0.6 2.5 0.9 3.8 1.4l0.9 0.3 1.1 0.3c0.7 0.2 1.5 0.4 2.2 0.7l0.6 0.2c0.2 0.1 0 0 0.3 0.1l1.1 0.3c0.7 0.2 1.4 0.3 2.1 0.5 1.4 0.4 2.9 0.6 4.3 0.9 1.5 0.3 2.9 0.5 4.4 0.7 12 1.6 24.9 0.9 37.8-2.7s25.5-10.2 36.4-19.8c5.4-4.8 10.5-10.3 14.7-16.5 1-1.6 2.1-3.1 3.1-4.7l1.5-2.4c0.4-0.8 0.9-1.7 1.3-2.5 0.5-0.8 0.9-1.7 1.3-2.6s0.8-1.7 1.2-2.6 0.7-1.8 1.1-2.7 0.8-1.8 1-2.6c0.3-0.8 0.6-1.7 0.9-2.5 0.2-0.4 0.3-1 0.5-1.5l0.5-1.6 0.5-1.6 0.2-0.8c-0.1 0.4 0.1-0.3 0.1-0.4 0.2-1 0.5-2 0.7-3 0.5-2 0.9-4 1.3-6s0.7-4.1 1-6.1c1.1-8.2 1.4-16.6 0.6-25.1s-2.5-17-5.1-25.3-6.5-16.4-11.1-24.1c-9.3-15.4-22.6-28.9-38.8-38.5-1-0.6-2.1-1.1-3.1-1.7-1-0.5-2-1.2-3.1-1.7-2.1-1-4.2-2.1-6.5-3-1.1-0.5-2.2-0.9-3.3-1.4-1-0.4-2.1-0.7-3.1-1.1l-1.5-0.6-2-0.6c-1.3-0.4-2.7-0.8-4-1.3-2.3-0.6-4.6-1.2-6.8-1.8-2.4-0.5-4.9-1-7.4-1.5-2.5-0.4-5-0.7-7.5-1.1-2.5-0.2-5-0.6-7.6-0.7-20.2-1.4-41.2 1.6-60.9 9.2-9.8 3.8-19.4 8.8-28.3 14.7-8.9 6-17.2 13.2-24.6 21.1-7.5 8-13.9 16.9-19.3 26.6-2.8 4.8-5.1 9.9-7.3 15-0.5 1.3-0.9 2.4-1.4 3.6l-0.7 1.8-0.3 0.9c-0.1 0.3-0.2 0.7-0.4 1.1-0.5 1.6-1 3.1-1.5 4.7l-0.8 2.3c0.3-0.8-0.1 0.4-0.1 0.5l-0.3 1.1c-3.2 11.2-5.3 22.8-6.2 34.6s-0.7 23.7 0.8 35.6c2.9 23.8 10.8 47.3 23.3 68.6 6.3 10.6 13.6 20.7 22 29.9s17.9 17.6 28.1 24.9c10.3 7.3 21.4 13.6 33.1 18.6 0.4 0.2 0.7 0.3 1.1 0.5l1 0.4 2.1 0.8 4.1 1.6c0.3 0.1 0.8 0.3 1.2 0.4l1.3 0.4 2.6 0.9 4.6 1.5 9.6 2.7c1.6 0.5 3.2 0.8 4.8 1.2l4.9 1.1c26.1 5.5 53.3 6.6 80.3 2.7 13.5-2 26.8-5.2 39.9-9.6 13-4.4 25.8-10 38-16.7s23.8-14.6 34.7-23.5 20.9-18.9 30.1-29.7c9.1-10.9 17.2-22.6 24.3-35.1 1.7-3.2 3.4-6.3 5-9.5 1.5-3.3 3.1-6.5 4.6-9.8 1.3-3.2 2.6-6.3 3.9-9.5 0.3-0.7 0.7-1.7 1-2.7l1-2.8 2-5.7 0.5-1.4c0.2-0.6-0.1 0.2 0.2-0.8l0.8-2.7 1.6-5.3 1.6-5.3 1.3-5.4 1.3-5.4c0.4-1.8 0.9-3.6 1.2-5.4 0.7-3.7 1.4-7.3 2.1-11 2.4-14.7 3.8-29.7 4.1-44.7 0.1-15-0.9-30.1-3-45.1-0.6-3.7-1.2-7.5-1.8-11.2-0.7-3.7-1.6-7.4-2.3-11.2l-0.6-2.8c-0.2-0.9-0.5-1.8-0.7-2.8l-1.5-5.5-1.4-5.5c-0.5-1.8-1.1-3.6-1.7-5.5l-1.7-5.5-0.9-2.7-1-2.7c-1.3-3.6-2.6-7.2-4-10.8-1.5-3.5-3-7.1-4.5-10.6-0.4-0.9-0.7-1.8-1.1-2.6l-1.3-2.6-2.5-5.2c-0.8-1.7-1.6-3.5-2.5-5.2l-2.8-5.1c-1.8-3.4-3.6-6.8-5.7-10.1l-3-5-1.5-2.5-0.7-1.2-0.8-1.2-6.5-9.6c-8.9-12.6-18.8-24.6-29.5-35.9l-8.2-8.3-8.6-7.9c-0.7-0.7-1.4-1.3-2.2-2l-2.3-1.9-4.5-3.7c-1.5-1.2-3-2.5-4.5-3.7l-4.7-3.5c-6.1-4.8-12.7-9.1-19.2-13.5l-10-6.1c-1.7-1.1-3.4-1.9-5.1-2.9l-5.2-2.8c-1.7-0.9-3.4-1.9-5.2-2.8l-5.3-2.6c-3.5-1.7-7.1-3.6-10.6-4.9-3.5-1.5-7-3-10.6-4.5l-11.9-4.3-1.5-0.5c-0.3-0.1-1.4-0.5-1-0.4l-2.9-0.9-5.7-1.8-5.8-1.8c-1.9-0.6-3.8-1.3-5.8-1.7l-11.7-3c-2-0.5-3.9-1-5.9-1.5l-5.9-1.2-11.8-2.4-12-1.8-6-0.9c-2-0.3-4-0.4-6-0.7l-12.1-1.2c-2-0.3-4-0.3-6.1-0.4l-6.1-0.3c-4-0.2-8.1-0.5-12.1-0.4h-15.2l-3 0.1-6.1 0.3-6.1 0.3-3 0.1-3 0.3-12.1 1.2-3 0.3-3 0.4-6 0.9-6 0.9-3 0.4-3 0.6-12 2.4-3 0.6c-1 0.2-2 0.5-3 0.7l-5.9 1.5-5.9 1.5-3 0.7c-1 0.3-2 0.6-2.9 0.9l-11.7 3.5-2.9 0.9c-1 0.3-1.9 0.7-2.9 1l-5.8 2-5.8 2-2.9 1c-1 0.4-1.9 0.8-2.8 1.1l-11.4 4.6-2.8 1.2c-0.9 0.4-1.9 0.9-2.8 1.3l-5.6 2.6-5.6 2.6-2.8 1.3c-0.9 0.4-1.8 0.9-2.7 1.4l-10.9 5.7-2.7 1.4c-0.9 0.5-1.8 1-2.7 1.6l-5.3 3.1-5.3 3.1-2.7 1.6c-0.9 0.5-1.7 1.1-2.6 1.7l-10.3 6.8-2.6 1.7c-0.8 0.6-1.7 1.2-2.5 1.8l-5 3.6-5 3.6-2.5 1.8c-0.8 0.6-1.6 1.3-2.4 1.9l-9.6 7.8-2.4 1.9c-0.8 0.6-1.5 1.4-2.3 2l-4.6 4.1-4.6 4.1c-1.5 1.4-3.1 2.7-4.5 4.2-5.8 5.8-11.8 11.5-17.2 17.6-11.3 12-21.2 25-30.8 38.3l-6.8 10.2-3.4 5.1-3.1 5.3-6.3 10.6c-2 3.6-3.8 7.2-5.7 10.8l-2.9 5.4-0.7 1.4-0.6 1.4-1.3 2.8c-1.7 3.7-3.4 7.4-5.1 11.1-0.4 0.9-0.9 1.9-1.3 2.8l-1.1 2.8-2.3 5.6-2.3 5.6c-0.7 1.9-1.5 3.7-2.2 5.7-1.3 3.9-2.7 7.9-4 11.8l-1.9 5.7-1.8 5.9-1.7 5.9-1.6 5.9-1.6 5.9-1.4 5.9c-3.8 15.8-6.8 31.8-9 47.9-4.3 32.1-5.2 64.6-2.7 96.5s8.3 63.3 17 93.5c4.4 15.1 9.5 29.9 15.4 44.4 5.8 14.5 12.3 28.5 19.5 42.2 14.3 27.3 31 53 49.8 76.5 9.4 11.8 19.2 23 29.5 33.8 10.3 10.7 21 20.9 32.1 30.5 22.1 19.2 45.7 36.2 70.2 50.8s49.9 26.9 75.8 36.9c3.3 1.2 6.5 2.4 9.7 3.6 1.6 0.6 3.2 1.2 4.8 1.7l4.8 1.6 2.4 0.8 1.2 0.4 1.3 0.4 5.1 1.6 5.1 1.6c0.7 0.2 0.5 0.2 1 0.3l1.2 0.4 2.5 0.7c3.3 1 6.6 1.9 9.9 2.9 3.3 0.9 6.6 1.8 10 2.7l5 1.3 5 1.2c3.3 0.8 6.6 1.6 9.9 2.4 3.3 0.7 6.6 1.5 9.9 2.2l5 1.1 5 1c3.3 0.6 6.6 1.3 9.9 1.9s6.6 1.1 9.9 1.7l4.9 0.8c1.7 0.2 3.3 0.5 5 0.7 3.3 0.5 6.6 1 9.9 1.5 3.3 0.4 6.6 0.8 9.9 1.2 1.6 0.2 3.3 0.4 4.9 0.6s3.3 0.3 4.9 0.5c3.3 0.3 6.5 0.6 9.8 1 3.3 0.2 6.5 0.5 9.8 0.7 1.6 0.1 3.3 0.2 4.9 0.4 1.6 0.1 3.3 0.2 4.9 0.3 3.2 0.2 6.5 0.3 9.7 0.5 3.2 0.1 6.5 0.2 9.7 0.3 1.6 0 3.2 0.1 4.8 0.1h14.4c3.2-0.1 6.4-0.1 9.6-0.2 1.6 0 3.2-0.1 4.8-0.1s3.2-0.1 4.7-0.2c3.2-0.1 6.3-0.3 9.5-0.4 3.1-0.2 6.3-0.4 9.4-0.6s6.2-0.4 9.4-0.7c3.1-0.3 6.2-0.5 9.3-0.8s6.2-0.7 9.2-1c6.1-0.6 12.2-1.5 18.3-2.3 24.2-3.4 47.7-8.4 70.4-14.4 2.8-0.7 5.6-1.6 8.4-2.3l8.4-2.4c2.8-0.9 5.5-1.7 8.3-2.6 2.8-0.8 5.5-1.7 8.2-2.6s5.4-1.8 8.1-2.7 5.4-1.9 8-2.8c2.7-1 5.3-1.9 8-2.9l7.8-3c20.8-8.1 40.7-17.2 59.5-27s36.6-20.3 53.3-31.3c33.5-22 62.6-45.9 87.6-70.1 12.5-12.1 24.1-24.2 34.6-36.3s20.1-23.9 28.9-35.5c17.3-23.3 31.4-45.2 42.6-65 11.2-19.7 19.8-37.1 26.3-51.4 6.5-14.4 11-25.4 14-33.1 3-7.6 4.5-11.6 4.5-11.6l4.9 1.7z"/>
		<path class="st0" d="m1661.2 595.9l-3-3-3-2.7-3.2-2.6-3.3-2.4c-4.4-3.1-9.2-5.8-14.2-7.9-9.9-4.3-20.7-6.5-31.3-6.5-10.7 0-21.3 2.1-31 6.3-4.9 2.1-9.5 4.7-13.8 7.7-2.2 1.5-4.2 3.1-6.2 4.8l-1.5 1.3-0.7 0.7c-0.3 0.2-0.3 0.3-0.6 0.6l-3 3c-3.6 3.7-7 7.8-10 12.2-3.1 4.3-5.7 8.9-7.9 13.7-4.6 9.5-7.5 19.7-8.7 30.1-1.3 10.4-0.7 20.9 1.3 31.1 1.1 5.1 2.6 10.1 4.4 14.9s4.1 9.5 6.7 13.9 5.6 8.7 8.9 12.6c0.8 1 1.7 1.9 2.5 2.9l0.6 0.7c0.2 0.3 0 0 0.5 0.5l1.5 1.5 3 3 1.5 1.5 0.7 0.7 0.7 0.6c1.9 1.6 3.8 3.3 5.7 4.9l6.3 4.7 6.6 4.2c1.1 0.7 2.3 1.3 3.4 1.9l3.4 1.9c18.5 9.5 39.3 14 59.9 13.1 10.3-0.5 20.5-2.2 30.2-5.3 9.8-3.1 19.1-7.5 27.6-12.9 8.6-5.5 16.4-12.1 23.4-19.5l5-5.7 4.6-6.1c0.4-0.5 0.8-1 1.1-1.5l1-1.6 2.1-3.2c0.7-1.1 1.4-2.1 2.1-3.2l1.9-3.4 1.9-3.4 0.9-1.7 0.8-1.8 3.2-7c1-2.4 1.9-4.8 2.8-7.2 0.4-1.2 1-2.4 1.4-3.6l1.1-3.7 1.1-3.7c0.4-1.2 0.8-2.5 1.1-3.8l1.8-7.6c0.7-2.5 1-5.1 1.5-7.7l0.7-3.9 0.3-1.9c0.1-0.7 0-0.2 0.1-0.6l0.1-1c0.3-2.8 0.7-5.6 0.9-8.4l0.4-7.4c0.1-0.6 0.1-1.2 0-1.9l-0.2-1.9-0.2-3.9v-2.3l0.1-1.9-0.1-3.8c-0.7-10.3-2.3-20.4-5-30.3-0.7-2.4-1.3-4.9-2.2-7.3l-2.5-7.2-3-7c-0.2-0.6-0.5-1.2-0.8-1.7l-0.8-1.7-1.7-3.4c-4.7-9-10.3-17.5-16.7-25.2l-2.4-2.9-1.2-1.4-1.3-1.4-2.6-2.7-1.3-1.4-0.7-0.7c0.4 0.3-0.3-0.3-0.5-0.4l-6.2-5.8c-0.5-0.5-1-0.9-1.5-1.3l-1.4-1.2-2.8-2.4-1.4-1.2-1.5-1.2-3.1-2.4c-1-0.8-2-1.6-3.1-2.3l-3.2-2.2-3.2-2.2-3.3-2.1c-2.2-1.3-4.3-2.8-6.6-4-17.9-10.3-37.5-17.4-57.7-21.1-10.1-1.9-20.4-2.9-30.6-3.2-10.3-0.2-20.5 0.5-30.7 2-10.1 1.5-20.1 3.9-29.8 7-2.4 0.8-4.9 1.6-7.2 2.5l-7.1 2.8-7 3.1c-2.3 1.1-4.6 2.3-6.8 3.4-9 4.7-17.7 10.2-25.8 16.4-2 1.6-4 3.1-6 4.7l-5.8 5c-0.1 0.1-0.8 0.7-0.4 0.3l-0.8 0.7-1.5 1.5-3.1 2.9c-2 1.9-4.2 3.9-5.8 5.7l-5.1 5.4c-0.9 0.9-1.7 1.9-2.5 2.9l-2.5 3c-3.5 3.9-6.5 8.1-9.7 12.1-6.1 8.4-11.9 17-16.8 26.2l-1.9 3.4c-0.7 1.1-1.2 2.3-1.8 3.5l-3.5 7c-1.1 2.3-2.1 4.7-3.1 7.1l-1.6 3.6c-0.5 1.2-0.9 2.4-1.4 3.6l-2.8 7.3-2.4 7.4c-0.4 1.2-0.8 2.5-1.2 3.7l-1 3.7c-0.7 2.5-1.4 5-2 7.5-9.8 40.3-8.6 83 3.3 122.5l2.3 7.4c0.4 1.2 0.8 2.4 1.3 3.6l1.4 3.6c1.7 4.9 3.9 9.5 5.9 14.3 1.1 2.3 2.3 4.6 3.4 7l1.7 3.5c0.6 1.2 1.2 2.3 1.8 3.4l3.7 6.8c1.3 2.2 2.7 4.4 4.1 6.6l2 3.3c0.7 1.1 1.5 2.1 2.2 3.2l4.4 6.4c1.5 2.1 3.1 4.1 4.7 6.1l2.4 3.1c0.8 1 1.7 2 2.5 3l5 5.9 0.6 0.7c-0.5-0.6 0.3 0.3 0.3 0.4l1.4 1.5 2.9 3.1 5.8 6.1c1.9 1.8 3.7 3.5 5.5 5.3l5.5 5.2 6 5.1 3 2.6c1 0.8 2 1.7 3 2.5l6.2 4.8 3.1 2.4c0.5 0.4 1 0.8 1.6 1.2l1.6 1.1 6.4 4.5 3.2 2.3c1.1 0.8 2.2 1.4 3.3 2.1l6.6 4.2c17.8 11 36.8 20.1 56.6 26.9 39.5 13.8 82 19 123.7 15.4 20.8-1.9 41.5-6 61.5-12.2s39.3-14.5 57.5-24.8c2.3-1.2 4.5-2.6 6.8-4l6.7-4.1 3.3-2.1 3.2-2.2 6.5-4.4c4.2-3.1 8.4-6.3 12.5-9.5l11.7-9.8 12.4-11.5c2.2-1.9 3.8-3.8 5.6-5.6l5.4-5.5c3.7-3.6 7.1-7.7 10.6-11.7l5.3-6c1.7-2.1 3.3-4.2 5-6.2 6.8-8.2 12.9-16.9 19-25.6l8.7-13.4 8-13.8c10.3-18.6 19-38.2 26.1-58.3l2.6-7.6c0.4-1.3 0.9-2.5 1.3-3.8l1.1-3.8 2.2-7.7c0.7-2.6 1.6-5.1 2.1-7.7 1.2-5.2 2.5-10.4 3.7-15.6l3-15.8c3.5-21.1 5.3-42.5 5.3-63.9s-1.8-42.9-5.4-64.1-9.2-42-16.4-62.3-16.1-40-26.7-58.8-22.9-36.7-36.6-53.5l-5.1-6.3-1.3-1.6c-0.2-0.2-0.6-0.7-0.5-0.6l-0.7-0.8-2.8-3.2c-1.9-2.1-3.7-4.3-5.6-6.3l-5.5-5.9c-1.8-2-3.7-3.9-5.6-5.9-1.9-1.9-3.8-3.9-5.8-5.8-3.9-3.8-7.8-7.7-11.9-11.3-8-7.5-16.3-14.5-24.8-21.5l-6.4-5.1c-2.1-1.7-4.4-3.3-6.5-5-4.3-3.3-8.8-6.5-13.3-9.6-2.2-1.6-4.5-3.1-6.8-4.6s-4.5-3.1-6.9-4.5l-6.9-4.4-7-4.3-3.5-2.1-3.6-2c-2.4-1.4-4.7-2.7-7.2-4.1-4.8-2.6-9.6-5.3-14.5-7.7-4.9-2.5-9.8-4.9-14.8-7.2-2.5-1.2-5-2.3-7.5-3.4s-5-2.3-7.6-3.3l-7.6-3.2-7.7-3c-2.6-1-5.1-2-7.7-2.9s-5.2-1.9-7.8-2.8c-41.6-14.4-85.3-22.9-129.3-25.5-44.1-2.5-88.6 1-131.8 10.6s-85.1 25.3-124.1 46.4c-19.5 10.6-38.2 22.5-56 35.7-4.5 3.2-8.8 6.7-13.2 10.1-2.2 1.7-4.3 3.5-6.5 5.2-2.1 1.8-4.3 3.5-6.4 5.3l-6.3 5.4-0.8 0.7c-0.3 0.3-0.4 0.4-0.7 0.6l-1.6 1.4-3.1 2.8-6.3 5.7-6 5.7c-32.1 30.7-61 65-85.5 102.1-24.6 37.1-45.1 76.9-60.9 118.5-7.9 20.8-14.6 42-20.2 63.6l-1.1 4c-0.3 1.3-0.6 2.7-1 4.1l-1.9 8.1c-0.7 2.7-1.2 5.4-1.8 8.1l-1.7 8.2c-1 5.5-2.1 10.9-3 16.4l-1.3 8.2c-0.4 2.7-0.9 5.5-1.2 8.2-6.2 44-7.8 88.7-4.2 132.9 1.8 22.1 4.7 44.1 8.8 65.9s9.5 43.3 16.1 64.4c25.9 84.7 71.3 163 130.7 228l-10.3-4.7c3.1 0 5.8 0 8.7 0.1l8.5 0.2c5.7 0.2 11.3 0.4 17 0.6 11.3 0.5 22.6 1.2 33.9 2 22.6 1.6 45.1 3.9 67.5 6.7s44.8 6.1 67.1 10 44.5 8.4 66.6 13.5c44.2 10.2 87.9 22.9 130.7 38.7 42.7 15.8 84.6 34.7 124.5 57.6 19.9 11.5 39.4 23.9 58.1 37.4s36.8 28.1 53.9 43.9c34.3 31.3 64.6 67.6 89 107.6 6.2 9.9 11.8 20.3 17.3 30.6l7.8 15.8 7.1 16.1c0.6 1.3 1.2 2.7 1.7 4l1.6 4.1 3.2 8.2 1.6 4.1c0.5 1.4 1.1 2.7 1.5 4.1l2.8 8.3 2.8 8.3 0.7 2.1 0.6 2.1 1.2 4.2 2.5 8.4 1.2 4.2 0.6 2.1 0.6 2.3 2.1 8.1 0.5 2 0.5 2.2 1 4.4c0.6 2.9 1.4 5.9 1.9 8.7l1.7 8.6c0.6 2.9 1.1 5.8 1.6 8.6 0.5 2.9 1.1 5.8 1.5 8.6 0.9 5.8 1.8 11.6 2.4 17.4 3 23.2 4.2 46.7 3.9 70.1-0.6 46.9-7.7 93.7-20.9 138.7s-32.6 88.2-57.5 128.1c-12.4 20-26.2 39-41.1 57.1-7.5 9-15.3 17.8-23.4 26.3s-16.4 16.8-25.2 24.7l-3.2 3-3.3 2.9c-2.2 1.9-4.4 3.9-6.6 5.8-4.5 3.8-9 7.6-13.6 11.2-9.2 7.4-18.6 14.4-28.3 21.1l-7.3 5c-2.4 1.6-4.9 3.2-7.4 4.8l-3.7 2.4-3.8 2.3-7.5 4.6-7.6 4.4-3.8 2.2-3.9 2.1-7.8 4.2-7.9 4c-2.6 1.4-5.3 2.6-7.9 3.9-2.7 1.3-5.3 2.6-8 3.8-5.4 2.4-10.7 4.9-16.2 7.1-10.8 4.6-21.9 8.8-33 12.7-5.6 1.9-11.1 3.8-16.8 5.5-2.8 0.8-5.6 1.8-8.4 2.6l-8.5 2.4-2.1 0.6c-0.6 0.2-0.1 0-1.7 0.4l-1 0.2-4.1 1-8.2 1.9-4.1 1-2 0.5c-0.7 0.2-1.5 0.3-2.2 0.4l-9.1 1.7-9.1 1.7c-1.5 0.3-3 0.5-4.5 0.7l-4.4 0.6-8.9 1.2-4.4 0.6c-1.5 0.2-3 0.3-4.5 0.4-5.9 0.5-11.9 1-17.8 1.4l-17.9 0.6c-23.9 0.2-47.8-1.6-71.3-5.3-47.2-7.4-92.9-23.4-134.8-46.2-5.2-2.9-10.5-5.7-15.5-8.9l-7.6-4.7c-2.5-1.6-5.1-3.1-7.5-4.8-4.9-3.4-9.9-6.7-14.7-10.2l-14.3-10.8c-18.7-14.8-36.1-31.3-52-49l-6-6.7-1.5-1.7-1.4-1.7-2.8-3.5-5.6-7-2.8-3.5c-0.9-1.2-1.8-2.4-2.7-3.6-3.5-4.8-7.1-9.6-10.5-14.5l-9.8-15c-12.6-20.3-23.5-41.6-32.5-63.6l-3.3-8.3-1.7-4.2-1.5-4.2-5.8-16.9-4.9-17.2-0.6-2.1-0.3-1.1c-0.4-1.6-0.3-1-0.4-1.7l-0.9-4.1-1.9-8.2c-0.7-2.6-1.2-5.8-1.8-8.9l-1.7-9.3-0.4-2.3-0.3-2.3-0.6-4.5-1.1-9c-0.2-1.5-0.3-3-0.4-4.5l-0.3-4.5-0.7-9c-0.2-6-0.4-12.1-0.5-18.1 0.1-48.4 10.7-96.6 30.7-140.5 0.6-1.4 1.2-2.8 1.9-4.1l2-4 4-8.1c0.3-0.7 0.7-1.4 1-2l1.1-2 2.2-3.9 4.4-7.9 4.8-7.7 2.4-3.8c0.8-1.3 1.6-2.6 2.5-3.8l5.1-7.4c1.7-2.5 3.4-5 5.3-7.3 14.4-19.3 30.8-37.1 48.9-53s37.9-29.8 58.9-41.5 43.3-21 66.3-27.9l8.7-2.4 4.3-1.2 1.1-0.3c1.5-0.4 1-0.2 1.6-0.4l2-0.5 8.2-1.9c0.7-0.2 1.3-0.3 2.1-0.5l2.3-0.4 4.7-0.8 4.7-0.8 2.3-0.4 2.3-0.3 9.1-1.1 2.3-0.3 2.3-0.2 4.6-0.3 4.6-0.3 2.3-0.2c0.8 0 1.5 0 2.3-0.1l9.1-0.2h4.6l4.6 0.1 4.6 0.1 2.3 0.1 2.3 0.2 9.1 0.7c12.1 1.2 24.2 3 36 5.9 6 1.2 11.8 3 17.6 4.6 2.9 0.9 5.8 1.9 8.7 2.8l4.3 1.4c1.4 0.5 2.8 1.1 4.3 1.6l8.5 3.3 8.3 3.7c1.4 0.6 2.8 1.2 4.1 1.9l4.1 2c2.7 1.4 5.4 2.7 8.1 4.1 5.3 3 10.6 5.8 15.7 9.2l3.8 2.4c1.3 0.8 2.6 1.6 3.8 2.5l7.5 5.2c9.8 7.2 19.2 14.7 28 23.1l3.3 3.1c1.1 1 2.1 2.2 3.2 3.2l6.3 6.5c2 2.2 4 4.5 6 6.8l3 3.4 2.8 3.5 5.6 7.1 5.3 7.4c0.9 1.2 1.8 2.4 2.6 3.7l2.5 3.8c1.6 2.5 3.3 5.1 4.9 7.6l4.5 7.8c0.7 1.3 1.5 2.6 2.2 3.9l2.1 4c1.4 2.7 2.8 5.4 4.1 8.1l3.7 8.2c0.6 1.4 1.3 2.7 1.8 4.1l1.7 4.2c1.1 2.8 2.2 5.6 3.3 8.4l2.9 8.6 1.4 4.3 1.2 4.3 2.4 8.7c0.1 0.3 0.4 1.6 0.4 1.5l0.2 1 0.5 2 0.9 4.1 0.5 2 0.4 2.4 0.8 4.7c0.3 1.6 0.6 3.2 0.8 4.7l0.6 4.6c1.5 12.1 2.1 24.4 1.6 36.6-1 24.5-6.2 48.7-15 71.3-9 22.7-21.6 43.8-37.3 62.3s-34.5 34.3-55.3 46.6c-2.6 1.5-5.2 3-7.9 4.5l-8.1 4.1c-2.7 1.3-5.5 2.5-8.3 3.7-1.4 0.6-2.8 1.2-4.2 1.7l-4.2 1.7c-2.8 1.2-5.7 2.1-8.5 3.1l-4.3 1.4c0.1 0-1.3 0.4-1.5 0.5l-1 0.3-2 0.6-4 1.1-2 0.6-2.4 0.5c-3.2 0.7-6.3 1.4-9.5 1.9-12.2 2.1-24.5 2.7-36.7 2.1s-24.4-2.4-36.1-5.5c-11.8-3.1-23.2-7.4-34.1-12.7l-4.1-2c-1.4-0.7-2.7-1.3-4-2.1l-7.9-4.5-7.6-4.9c-1.3-0.8-2.5-1.7-3.7-2.6l-3.6-2.7-1.8-1.3-0.9-0.7c-0.9-0.8-0.7-0.6-1.1-0.9l-3.2-2.7-3.2-2.7-1.6-1.3-0.8-0.7-0.8-0.8c-4.5-4.2-9.2-8.4-13.1-12.9l-3.1-3.3c-0.5-0.6-1-1.1-1.5-1.7l-1.4-1.8-5.7-7c-1.8-2.4-3.5-4.9-5.2-7.4l-1.3-1.9-0.6-0.9-0.6-1-2.3-3.9c-12.7-20.7-20.2-44.7-21.4-69.1-0.6-12.2 0.4-24.4 3-36.3s6.8-23.4 12.3-34.1c11-21.5 27.6-40 47.7-53.2 10-6.6 20.9-11.8 32.3-15.5l2.1-0.7c0.7-0.2 1.4-0.4 2.2-0.6l4.3-1.2 2.2-0.6 1.1-0.3c0.1-0.1 1-0.3 1.3-0.3l4.1-0.8c0.3-0.1 0.7-0.1 1.1-0.2l1.2-0.2 2.4-0.3c1.6-0.3 3.1-0.4 4.6-0.5s3-0.3 4.6-0.3c1.5 0 3-0.1 4.6-0.1 6.1 0 12.1 0.6 18.1 1.7 3 0.5 5.9 1.2 8.8 2l4.3 1.3c1.4 0.4 2.8 1 4.3 1.4 5.6 2 11.1 4.5 16.3 7.4 2.6 1.5 5.2 2.9 7.6 4.6l1.9 1.2c0.2 0.1 0.8 0.6 1.1 0.7l0.8 0.6 3.4 2.5c2.2 1.5 4.6 3.6 6.9 5.5 2.4 1.9 4.4 4 6.6 6 4.2 4.1 8.1 8.6 11.7 13.3 7.2 9.4 12.6 20.2 16 31.6 0.5 1.4 0.8 2.9 1.1 4.3 0.3 1.5 0.7 2.9 1 4.4 0.5 2.9 1 5.9 1.2 8.8 0.6 5.9 0.3 11.9-0.3 17.8l-0.6 4.4c-0.2 1.5-0.6 2.9-0.9 4.3l-0.5 2.2-0.6 2.1c-0.4 1.4-0.8 2.8-1.3 4.2-1.1 2.8-2 5.6-3.3 8.2l-0.9 2c-0.3 0.7-0.6 1.3-1 2l-2.1 3.9c-5.9 10.1-13.8 19.1-23.2 25.9-2.3 1.8-4.8 3.3-7.2 4.9-1.2 0.7-2.5 1.4-3.8 2.1l-1.9 1c-0.6 0.3-1.3 0.6-2 0.9l-4 1.8-4.1 1.5-2 0.7-2.1 0.6-4.2 1.2-1.3-4.8 3.9-1.3 1.9-0.6 1.9-0.8 3.7-1.6 3.6-1.8 1.8-0.9 1.7-1c1.1-0.7 2.3-1.4 3.4-2.1 2.2-1.6 4.4-3 6.5-4.8 8.4-6.7 15.1-15.3 20.1-24.7l1.7-3.6c0.3-0.6 0.6-1.2 0.8-1.8l0.7-1.8c1.1-2.4 1.8-5 2.6-7.5 0.3-1.3 0.6-2.6 1-3.8 0.2-0.6 0.3-1.3 0.5-1.9l0.3-2c0.2-1.3 0.5-2.6 0.6-3.9l0.4-3.9c0.3-5.2 0.3-10.5-0.4-15.7-0.2-2.6-0.9-5.2-1.3-7.7-0.2-1.3-0.7-2.5-1-3.8-0.4-1.3-0.6-2.5-1.1-3.7-3.4-9.9-8.6-19.1-15.3-27.2-3.4-4-7-7.9-10.9-11.4-2-1.7-3.9-3.6-6-5.1-2.1-1.6-4-3.2-6.4-4.7l-3.5-2.3-0.9-0.6c-0.3-0.2-0.2-0.2-0.7-0.4l-1.7-1c-2.2-1.4-4.5-2.6-6.9-3.8-4.7-2.3-9.5-4.2-14.4-5.8-1.2-0.4-2.5-0.8-3.7-1.1l-3.8-0.9c-2.5-0.5-5.1-1.1-7.6-1.4-5.1-0.7-10.2-1.1-15.3-0.9-1.3 0-2.5 0.2-3.8 0.2-1.3 0.1-2.5 0.2-3.8 0.4s-2.5 0.3-3.7 0.5l-1.8 0.3-0.9 0.2c-0.3 0-0.6 0.1-1 0.2l-4.1 1c-0.4 0.1-0.2 0.1-0.7 0.2l-0.9 0.3-1.9 0.6-3.7 1.2c-0.6 0.2-1.3 0.4-1.9 0.6l-1.8 0.7c-9.8 3.6-19.1 8.4-27.5 14.5-16.9 12-30.5 28.3-39.3 46.9-4.4 9.3-7.5 19.1-9.4 29.1-1.8 10-2.3 20.3-1.5 30.4 1.7 20.2 8.5 40 19.7 57l2.1 3.2 0.5 0.8 0.6 0.8 1.2 1.5c1.6 2 3 4.1 4.6 6.1l5 5.8 1.3 1.5c0.4 0.5 0.9 0.9 1.3 1.4l2.7 2.8c3.6 3.8 7.4 7 11.1 10.3l0.7 0.6 0.8 0.6 1.6 1.3 3.3 2.6 3.3 2.6c0.1 0.1 0.9 0.7 0.5 0.4l0.8 0.5 1.6 1.1 3.2 2.2c1.1 0.7 2.1 1.5 3.2 2.1l6.6 4 6.8 3.6c1.1 0.6 2.3 1.2 3.5 1.7l3.5 1.6c9.3 4.2 19.1 7.5 29 9.8 19.9 4.5 40.5 5 60.2 1.2 2.4-0.5 4.6-1.1 6.9-1.6l1.7-0.4 2-0.6 4-1.2 2-0.6 1-0.3c0.5-0.1-0.3 0.1 0.4-0.2l3.6-1.3c2.4-0.9 4.8-1.7 7.2-2.8l3.5-1.5c1.2-0.5 2.4-1 3.5-1.6l6.9-3.4 6.8-3.7c2.2-1.3 4.4-2.7 6.6-4 17.3-10.9 32.9-24.6 45.7-40.5s23-33.9 30-53c6.9-19.1 10.7-39.3 11.1-59.6 0.2-10.1-0.5-20.2-2-30.2l-0.5-3.7c-0.2-1.2-0.5-2.4-0.7-3.6l-0.7-3.5-0.3-1.8-0.5-2-1-4.1-0.5-2-0.3-1c-0.2-0.8 0-0.1-0.1-0.5l-2.2-7.4-1.1-3.7-1.3-3.6-2.6-7.3-3-7.1-1.5-3.6c-0.5-1.2-1.1-2.3-1.6-3.5l-3.3-7c-1.2-2.3-2.4-4.5-3.6-6.8l-1.8-3.4c-0.6-1.1-1.3-2.2-2-3.3l-4-6.6c-1.4-2.1-2.9-4.3-4.3-6.4l-2.1-3.2c-0.7-1-1.5-2.1-2.3-3.1l-4.6-6.2-4.9-5.9-2.5-3-2.6-2.8c-1.7-1.9-3.4-3.8-5.2-5.7l-5.5-5.4-2.7-2.7-2.9-2.6c-7.5-7-15.7-13.2-24-19.1l-6.4-4.3c-1-0.7-2.1-1.4-3.2-2l-3.3-2c-4.3-2.7-8.9-5-13.4-7.5-2.3-1.2-4.6-2.2-6.9-3.3l-3.5-1.7c-1.2-0.5-2.4-1-3.5-1.5l-7.1-3-7.2-2.6c-1.2-0.4-2.4-0.9-3.6-1.3l-3.7-1.1c-2.4-0.7-4.9-1.6-7.3-2.3-4.9-1.2-9.8-2.7-14.8-3.6-9.9-2.3-20.1-3.5-30.2-4.4l-7.6-0.5-1.9-0.1h-11.4l-1.9 0.1-7.6 0.3c-0.6 0-1.3 0-1.9 0.1l-1.9 0.2-3.8 0.3-3.8 0.3-1.9 0.2-1.9 0.3-7.5 1.1-1.9 0.3-1.8 0.3-3.6 0.7-3.6 0.7-1.8 0.3c-0.6 0.1-1.3 0.3-2 0.5l-8.1 2-2 0.5c-0.1 0-1.3 0.3-0.4 0.1l-0.9 0.3-3.7 1.1-7.4 2.2c-19.7 6.3-38.8 14.6-56.7 24.9s-34.7 22.5-50 36.3-29.2 29.2-41.3 45.9c-1.6 2-3 4.2-4.4 6.3l-4.3 6.4c-0.7 1-1.4 2.2-2.1 3.3l-2 3.3-4 6.6-3.7 6.8-1.8 3.4-0.9 1.7c-0.3 0.6-0.6 1.2-0.8 1.7l-3.4 7-1.7 3.5c-0.6 1.2-1 2.4-1.5 3.5-8.3 18.8-14.6 38.5-18.8 58.6s-6.2 40.6-6.1 61.2c0.1 20.5 2.6 41.2 7 60.6l2 8.1 1 4.1s0.3 1.3 0.1 0.4l0.3 0.9 0.6 1.9 4.4 15 5.2 14.8c0.4 1.2 0.8 2.5 1.3 3.7l1.5 3.6 3 7.2c8.1 19.2 17.7 37.8 28.8 55.4l8.6 13c3 4.3 6.2 8.4 9.2 12.6 0.8 1 1.5 2.1 2.3 3.1l2.5 3 4.9 6.1 2.5 3 1.2 1.5 1.3 1.5 5.2 5.8c14 15.4 29.2 29.7 45.6 42.7l12.5 9.4c4.3 3 8.6 5.9 12.9 8.8 2.1 1.5 4.4 2.8 6.6 4.2l6.7 4.1c4.4 2.8 9 5.2 13.6 7.7 18.3 9.9 37.4 18.4 57.1 25.2 19.7 6.9 40 11.8 60.5 15.2 20.5 3.3 41.4 4.9 62.2 4.8l15.6-0.4c5.2-0.3 10.4-0.8 15.6-1.2l3.9-0.3 3.9-0.5 7.8-1 3.9-0.5c1.3-0.2 2.6-0.3 3.8-0.6l7.4-1.3 7.4-1.3c0.6-0.1 1.2-0.2 1.9-0.3l2-0.5 4.1-1 8.2-1.9 4.1-1 1-0.2c-1 0.2 0.3-0.1 0.3-0.1l1.9-0.5 7.7-2.1c2.6-0.7 5.1-1.5 7.6-2.2 5.1-1.5 10.1-3.2 15.1-4.8 10-3.5 19.9-7.1 29.7-11.2 4.9-2 9.7-4.2 14.6-6.3 2.4-1.1 4.8-2.3 7.2-3.4s4.8-2.2 7.1-3.5c75.8-37.6 141.1-96.4 186.5-168.1 22.8-35.8 40.8-74.7 53.2-115.3s19.3-83 20.3-125.5c0.4-21.3-0.4-42.6-2.9-63.7-0.5-5.3-1.3-10.6-2.1-15.8-0.3-2.6-0.8-5.3-1.3-7.9-0.4-2.6-0.8-5.3-1.4-7.9l-1.5-7.8c-0.5-2.6-1.1-5.1-1.6-7.7l-0.8-3.8-0.4-1.9-0.5-2-2-8.1-0.4-1.7-0.5-1.9-1.1-3.8-2.2-7.7-1.1-3.8-0.5-1.9-0.6-1.9-2.5-7.6-2.5-7.6c-0.4-1.3-0.9-2.5-1.4-3.7l-1.4-3.7-2.8-7.5-1.4-3.7c-0.5-1.2-1-2.4-1.5-3.7l-6.3-14.6-6.9-14.4c-4.9-9.4-9.8-18.9-15.3-27.9-21.8-36.5-48.8-70-80.1-99.4-15.6-14.7-32.1-28.6-49.4-41.5s-35.3-24.9-53.9-36.1c-37.3-22.3-76.8-41.2-117.5-57.2-40.8-16.1-82.7-29.4-125.4-40.4s-86-19.7-129.7-26.2c-21.8-3.3-43.8-6-65.8-8.2-11-1.1-22-2-33-2.8-5.5-0.4-11-0.7-16.5-1l-8.2-0.4c-2.7-0.1-5.5-0.2-8-0.3l-6.4-0.1-3.9-4.5c-30.2-34.8-56.6-72.8-78.5-113.2-22-40.4-39.4-83.1-52-127.2-6.3-22-11.4-44.4-15.3-67s-6.5-45.3-7.9-68.2c-2.9-45.7-0.6-91.6 6.3-136.7 6.9-45.2 18.9-89.5 35.4-132 8.2-21.3 17.7-42.1 28.2-62.3s22.1-39.9 34.8-58.9c1.5-2.4 3.2-4.7 4.8-7.1l4.9-7c3.3-4.6 6.7-9.2 10.1-13.8 3.5-4.5 6.9-9.1 10.5-13.5l5.4-6.7c1.8-2.2 3.6-4.4 5.4-6.6 14.7-17.5 30.2-34.1 46.7-50 2.1-2 4.1-4 6.2-5.9l6.2-5.7 3.1-2.9 1.6-1.4 0.9-0.8 0.8-0.7 6.5-5.6c2.1-1.9 4.4-3.7 6.6-5.5s4.4-3.7 6.6-5.4c4.5-3.5 9-7.1 13.6-10.5 9.1-6.9 18.6-13.4 28.1-19.6l7.2-4.6c2.4-1.5 4.9-3 7.3-4.5 4.9-3 9.9-5.8 14.8-8.6 2.5-1.4 5-2.7 7.6-4.1l3.8-2c1.3-0.7 2.6-1.3 3.8-1.9l7.7-3.9 7.8-3.7 3.9-1.8 3.9-1.7c2.6-1.2 5.2-2.4 7.9-3.5 5.3-2.2 10.6-4.5 15.9-6.5 5.3-2.1 10.7-4 16.1-6 2.7-1 5.4-1.8 8.1-2.7s5.4-1.8 8.2-2.6l8.2-2.5 8.3-2.3c2.8-0.8 5.5-1.5 8.3-2.2s5.5-1.4 8.3-2.1c44.6-10.7 90.7-15.2 136.7-13.6 45.9 1.6 91.8 9.4 135.7 23.3 44 13.9 86.2 33.9 124.9 59.2 4.8 3.2 9.7 6.4 14.4 9.8 2.4 1.7 4.8 3.3 7.1 5.1l7 5.2c9.2 7 18.3 14.3 27 22 4.4 3.8 8.6 7.7 12.9 11.6l6.3 6c2.1 2 4.2 4 6.2 6.1l6.2 6.3c2 2.1 3.9 4.1 5.8 6.2l2.9 3.1 0.7 0.8 0.9 1 1.4 1.7 5.8 6.6c15.3 17.7 29.2 36.7 41.3 56.8 12.1 20.2 22.4 41.4 30.9 63.3 8.5 22 15.2 44.6 19.8 67.8 4.5 23.1 7.1 46.7 7.7 70.3s-0.8 47.3-4.2 70.7-9 46.5-16.4 69.1c-7.4 22.5-16.8 44.4-28 65.4l-8.7 15.5-9.5 15.1c-6.6 9.9-13.4 19.7-20.8 28.9-1.8 2.3-3.6 4.7-5.5 7l-5.8 6.8c-3.9 4.5-7.6 9-12 13.4l-6.3 6.6c-2.1 2.2-4.3 4.5-6.3 6.4l-12.3 11.6c-0.5 0.4-0.1 0.1-1.2 1.1l-0.9 0.7-1.7 1.5-3.4 2.9-6.9 5.9c-4.8 3.7-9.5 7.4-14.4 11l-7.4 5.1-3.7 2.6c-1.2 0.9-2.5 1.7-3.8 2.5l-7.7 4.8c-2.6 1.6-5.1 3.2-7.8 4.6-41.9 24-89.1 38.6-137.2 42.9-48.1 4.2-97-2.2-142.5-18.2-22.8-8-44.6-18.6-65.1-31.3l-7.6-4.9c-1.3-0.8-2.6-1.6-3.8-2.5l-3.7-2.6-7.4-5.3-1.8-1.3c-0.6-0.4-1.2-0.9-1.8-1.4l-3.5-2.8-7.1-5.6c-1.2-0.9-2.3-1.9-3.4-2.9l-3.4-3-6.8-6c-2.2-2.1-4.5-4.3-6.7-6.5s-4.5-4.4-6.6-6.5l-5.8-6.2-2.9-3.1-1.4-1.5-1.1-1.2-0.7-0.9-5.9-7c-1-1.2-2-2.3-2.9-3.5l-2.8-3.7c-1.8-2.4-3.7-4.9-5.5-7.3l-5.2-7.6c-0.8-1.3-1.7-2.5-2.6-3.8l-2.4-3.9c-1.6-2.6-3.2-5.2-4.7-7.9l-4.4-8.1c-0.7-1.4-1.5-2.7-2.1-4.1l-2-4.1c-1.3-2.8-2.7-5.5-3.9-8.3-2.3-5.7-4.9-11.2-6.8-17l-1.6-4.3c-0.5-1.4-1.1-2.9-1.5-4.3l-2.7-8.8c-13.6-46.9-14.5-97.4-2.3-144.6 0.7-3 1.6-5.9 2.5-8.8l1.3-4.4c0.4-1.5 1-2.9 1.4-4.3l2.9-8.6 3.3-8.5c0.6-1.4 1.1-2.8 1.7-4.2l1.9-4.2c1.3-2.8 2.5-5.6 3.8-8.3l4.2-8.1c0.7-1.3 1.3-2.7 2.1-4l2.3-4c5.9-10.6 12.9-20.6 20.2-30.4 3.8-4.7 7.5-9.6 11.6-14l3-3.4c1-1.1 2-2.3 3.1-3.4l6.6-6.7c2.3-2.4 4.3-4.1 6.4-6.1l3.1-2.9 1.6-1.4 0.8-0.7c1-0.9 0.8-0.7 1.2-1.1l7.1-5.9c2.4-1.9 4.9-3.7 7.4-5.6 10-7.3 20.5-13.7 31.5-19.3 2.8-1.3 5.5-2.7 8.3-4l8.5-3.6 8.7-3.2c2.9-1 5.9-1.9 8.8-2.9 11.8-3.6 23.8-6.2 36-7.7 12.2-1.6 24.5-2.2 36.7-1.7 12.3 0.5 24.5 2 36.4 4.5 24 5 47.1 13.9 68 26.6 2.7 1.5 5.2 3.2 7.7 4.9 1.3 0.8 2.6 1.7 3.8 2.5l3.7 2.7 3.7 2.7c1.2 0.9 2.4 1.9 3.6 2.8l3.6 2.9 1.8 1.4 1.8 1.6 3.6 3.1 1.8 1.6c0.6 0.5 1.2 1.1 1.7 1.5l6 5.9c0.4 0.4 0.2 0.2 1.1 1l0.8 0.9 1.6 1.7 3.2 3.4 1.6 1.7 1.5 1.8 2.9 3.6c7.7 9.8 14.3 20.4 19.7 31.5l2 4.2 1 2.1c0.3 0.7 0.6 1.4 0.9 2.1l3.4 8.6 2.9 8.8c0.9 2.9 1.6 5.9 2.4 8.9 2.9 12 4.6 24.2 5.1 36.4l0.1 4.6 0.1 2.3-0.1 2.3-0.1 4.6-0.1 2.3c0 0.8 0 1.5-0.1 2.3l-0.8 9.5-1.2 8.4-0.1 1c0 0.3-0.2 1.5-0.2 1.5l-0.4 2.2-0.9 4.4c-0.6 2.9-1.1 5.9-2 8.8l-2.4 8.8c-0.4 1.5-0.9 2.9-1.4 4.3l-1.5 4.3-1.5 4.3c-0.5 1.4-1.1 2.8-1.7 4.2-1.2 2.8-2.3 5.6-3.6 8.4l-4.1 8.2-1 2-1.2 2-2.3 4-2.3 4c-0.8 1.3-1.7 2.5-2.6 3.8l-2.6 3.8-1.3 1.9c-0.5 0.6-1 1.2-1.4 1.8l-5.8 7.2-6.3 6.8c-8.7 8.8-18.5 16.5-29.1 22.8s-22 11.2-33.9 14.6c-11.9 3.3-24.1 5-36.4 5.1-24.5 0.2-48.9-6-70.1-17.9l-3.9-2.3c-1.3-0.8-2.6-1.5-3.9-2.4-2.5-1.7-5-3.4-7.5-5.2l-7.1-5.7c-2.3-2-4.6-4.2-6.9-6.4l-0.9-0.8c-0.3-0.3-0.6-0.5-0.8-0.8l-1.4-1.6-2.9-3.1-1.4-1.6s-0.8-0.8-0.9-1.1l-0.7-0.9c-1-1.2-1.9-2.4-2.9-3.6-3.7-4.9-7-10-10-15.4-2.9-5.4-5.3-11-7.3-16.8s-3.5-11.7-4.5-17.7c-1.9-12-2-24.3 0-36.2s5.8-23.5 11.5-34.1c2.8-5.3 6-10.4 9.7-15.1s7.6-9.1 12.1-13.3l3.1-2.8c0.2-0.1 0.6-0.6 0.9-0.8l0.9-0.7 1.8-1.4c2.4-1.9 4.8-3.6 7.4-5.2 5.1-3.2 10.5-5.9 16.1-8 11.2-4.2 23.2-6 35.1-5.4 11.8 0.6 23.5 3.7 34 8.9 5.3 2.6 10.2 5.8 14.8 9.4l3.4 2.8 3.2 3 3.1 3.2 2.8 3.2-4 3.9z"/>
		<path class="st1" d="m1914.8 314.7c-3.2-3.5-6.3-7.1-9.6-10.5l-4.9-5.1c-1.6-1.7-3.2-3.4-4.9-5.1-3.3-3.3-6.6-6.7-10.1-9.9l-5.1-4.9c-1.7-1.6-3.5-3.2-5.2-4.8-14-12.7-28.6-24.6-44-35.6-15.3-11-31.3-21.1-47.8-30.2s-33.6-17.2-51.1-24.2c-17.5-7.1-35.5-12.9-53.7-17.7-9.1-2.4-18.3-4.5-27.6-6.4-9.3-1.8-18.6-3.4-27.9-4.6-18.7-2.5-37.5-4-56.4-4.2s-37.7 0.6-56.5 2.6-37.4 5.1-55.8 9.1c-18.4 4.1-36.6 9.3-54.4 15.4s-35.4 13.1-52.5 21-33.8 16.7-50.1 26.2c-32.5 19.1-63.2 41.3-91.7 65.8-14 12.3-27.3 25.8-39.7 39.9s-24.1 28.9-35.4 44l-4.7 6.3-3.7-7c-11.4-21.8-24.9-42.4-40.2-61.6s-32.4-36.9-51.1-52.8c-37.3-31.8-80.5-56.5-126.8-72.2-46.2-15.8-95.4-22.8-144-20.4-24.3 1.2-48.5 4.7-72.1 10.4s-46.7 13.7-68.8 23.7l-1 0.5-1 0.4-2.1 1-4.2 2c-1.4 0.7-2.8 1.3-4.1 2l-4.1 2c-5.4 2.7-10.8 5.5-16.2 8.5-10.7 5.9-21.2 12.1-31.4 18.7-20.4 13.3-39.8 28.1-58 44.2-18.2 16.2-35.1 33.7-50.6 52.5-15.5 18.7-29.6 38.6-42.1 59.4-25 41.6-43.7 87-55.3 134.1s-16 95.9-13 144.3l0.7 10.5-10.2 3.2c-25.9 8.2-50.9 19-74.4 32.4-23.6 13.4-45.7 29.3-65.9 47.3s-38.4 38.2-54.3 60.1-29.4 45.4-40.2 70.2c-2.7 6.2-5.3 12.4-7.7 18.8-2.4 6.3-4.6 12.7-6.6 19.1l-0.8 2.4-0.4 1.2-0.3 1.1-1.5 5.1-1.5 5.1c-0.5 1.7-0.9 3.3-1.3 4.9-0.8 3.3-1.8 6.4-2.5 9.8l-2.4 9.9c-5.9 26.6-9.7 53.6-11.1 80.7-0.7 13.6-0.8 27.2-0.3 40.7 0.2 3.4 0.2 6.8 0.5 10.2l0.7 10.2 0.9 10.1c0.3 3.4 0.8 6.7 1.1 10.1 3.3 26.9 8.8 53.6 16.7 79.6s17.8 51.3 29.9 75.6 26.2 47.5 42.2 69.5c16 21.9 33.9 42.4 53.3 61.2 19.5 18.8 40.5 36 62.9 51.2s46.1 28.5 70.7 39.7c12.3 5.6 24.9 10.6 37.6 15.2 3.2 1.1 6.4 2.3 9.6 3.3l9.7 3.1 9.9 3 2.5 0.7 2.4 0.7 4.9 1.3c26.2 7.2 53 12.7 80 16.4s54.2 5.6 81.5 5.7l40.1 0.1-25.7 31c-4 4.8-7.8 9.7-11.5 14.7-1.8 2.5-3.6 5-5.4 7.6l-1.3 1.9-0.6 1-0.5 0.8-2.7 4.2c-0.9 1.4-1.8 2.8-2.6 4.1l-2.4 3.9-2.4 3.9-2.4 4.1-2.4 4.1-2.3 4.1-2.3 4.1-2.2 4.2c-11.5 22.4-20.7 45.9-27.4 70.1s-11 49.1-12.7 74.2c-1.8 25.1-1 50.3 2.3 75.2s9.1 49.4 17.2 73.2c8.1 23.7 18.7 46.6 31.4 68.2s27.6 41.9 44.4 60.4c16.8 18.6 35.5 35.4 55.6 50.2l7.6 5.5 7.6 5.2 8.3 5.4 7.9 4.9c10.8 6.6 21.9 12.7 33.2 18.4 22.6 11.4 46.1 20.9 70.2 28.4 48.2 15.1 98.8 22.3 149.2 21.3 50.4-0.9 100.6-10 148.1-26.7 23.7-8.4 46.8-18.6 68.9-30.6s43.2-25.8 63-41.2l14.3-11.1 15.1 10.5c19.2 13.3 39.6 24.8 60.9 34.3s43.5 17 66.1 22.4c22.7 5.4 45.8 8.5 69.1 9.5 23.2 1 46.6-0.3 69.6-3.6 11.5-1.7 22.9-4 34.2-6.7l4.2-1.1 2.1-0.5 0.3-0.1c0.2 0-0.4 0.1 0 0l0.6-0.2 1.1-0.3 9-2.5c1.6-0.4 2.8-0.8 4.2-1.3l4.1-1.3 4.1-1.3 4.2-1.4c11.2-3.6 22.3-7.8 33.2-12.3 10.9-4.4 21.6-9.4 32.1-14.7s20.8-11 30.9-17.1c2.5-1.6 5.1-3 7.5-4.6l7.4-4.8c4.9-3.3 9.8-6.5 14.6-10 4.8-3.4 9.5-7 14.2-10.5l6.9-5.5c2.3-1.8 4.6-3.7 6.8-5.6 9-7.6 17.9-15.4 26.3-23.7 8.4-8.2 16.6-16.7 24.4-25.6 7.8-8.8 15.3-18 22.5-27.3 7.1-9.4 13.9-19.1 20.4-29s12.4-20.1 18.1-30.4 10.9-20.9 15.8-31.7c2.5-5.4 4.7-10.8 7.1-16.2 2.2-5.5 4.4-11 6.4-16.5 8.2-22.2 14.6-45 19.3-68.1 2.3-11.6 4.3-23.2 5.8-35 1.4-11.7 2.5-23.5 3.1-35.3s0.7-23.6 0.4-35.5c-0.3-11.8-1.1-23.6-2.3-35.4s-2.9-23.5-4.9-35.2l-1.6-8.7c-0.5-2.9-1.2-5.8-1.8-8.7l-0.9-4.3-1-4.3-2.1-8.6-1.2-4.5-1.1-4.2c-0.8-2.8-1.6-5.7-2.5-8.5-1.7-5.7-3.5-11.3-5.4-16.9-3.8-11.2-8.1-22.2-12.8-33.1l-14.4-33.1 35.6 1c23.7 0.7 47.5-0.8 71-4.7 23.5-3.8 46.6-9.9 68.9-18.1 22.4-8.2 44-18.6 64.5-30.8 20.5-12.3 39.8-26.6 57.7-42.6 17.8-16 34.3-33.7 48.8-52.8 14.6-19.1 27.3-39.7 38-61.3s19.3-44.3 25.7-67.6c3.2-11.7 5.8-23.5 7.9-35.5l0.8-4.5 0.7-4.5 0.7-4.4 0.6-4.7 0.6-4.7 0.5-4.5c0.3-3 0.7-6 1-9.1 2.4-24.4 3.1-49.1 2.2-73.7s-3.5-49.1-7.9-73.4c-4.3-24.3-10.4-48.2-18.2-71.6s-17.4-46.3-28.6-68.3c-11.3-22-24.2-43.2-38.9-63.1-14.7-20-30.9-38.7-48.7-56s-37.1-33-57.6-47-42.3-26.2-65-36.5l-3.6-1.6 0.7-3.9 2.1-11.2c0.6-3.7 1.2-7.5 1.7-11.2 0.4-3.8 0.9-7.5 1.3-11.3 0.3-3.8 0.7-7.5 1-11.3 0.2-3.8 0.5-7.6 0.6-11.4l0.1-5.7c0-1.9 0.1-3.8 0.1-5.7 0-7.6-0.2-15.2-0.6-22.8s-1.1-15.2-2-22.7c-0.9-7.6-2-15.1-3.3-22.6-0.7-3.7-1.3-7.5-2.2-11.2-0.8-3.7-1.5-7.5-2.5-11.1-0.9-3.7-1.8-7.4-2.8-11.1s-2-7.4-3.1-11-2.2-7.3-3.4-10.9-2.4-7.2-3.7-10.8-2.6-7.2-4-10.7-2.8-7.1-4.3-10.6c-3-7-6.1-14-9.5-20.8-3.3-6.9-6.9-13.6-10.6-20.3s-7.6-13.2-11.7-19.7c-2.1-3.2-4.1-6.4-6.2-9.6-2.2-3.1-4.3-6.3-6.5-9.4s-4.4-6.2-6.7-9.3c-2.3-3-4.6-6.1-7-9.1l-7.2-8.9-7-8.1zm3.7-3.3l7.6 8.7 7.4 8.9c2.4 3 4.8 6.1 7.1 9.1 2.3 3.1 4.6 6.2 6.9 9.3s4.4 6.3 6.6 9.5 4.3 6.5 6.4 9.7c4.2 6.5 8.2 13.1 12 19.8s7.5 13.5 11 20.4 6.8 13.9 9.8 21c1.6 3.5 3 7.1 4.5 10.7s2.8 7.2 4.2 10.8 2.6 7.3 3.9 10.9 2.4 7.4 3.6 11c1.2 3.7 2.2 7.4 3.3 11.1s2 7.5 3 11.2 1.8 7.5 2.7 11.3 1.6 7.6 2.4 11.4c1.5 7.6 2.7 15.3 3.8 23 1 7.7 1.8 15.4 2.4 23.2 0.6 7.7 0.9 15.5 1 23.3 0.1 1.9 0 3.9 0 5.8v5.8c0 3.9-0.3 7.8-0.4 11.7-0.2 3.9-0.5 7.8-0.8 11.6-0.3 3.9-0.8 7.7-1.1 11.6-0.5 3.9-1 7.7-1.5 11.6l-1.9 11.5-2.9-5.5c23.4 10 46 22 67.4 35.9s41.6 29.6 60.4 46.9 36.2 36.2 51.9 56.4 29.8 41.7 42.2 64.1 23 45.9 32 69.9c8.9 24.1 16.1 48.8 21.4 74 10.7 50.3 14.5 102.1 11.3 153.6-0.2 3.2-0.4 6.5-0.7 9.7l-0.4 4.9-0.4 4.7-0.4 4.7-0.6 5-0.6 4.9-0.7 4.8c-1.8 12.9-4.2 25.8-7.2 38.5-6 25.4-14.5 50.3-25.4 74.2-21.6 47.8-52.8 91.5-91 127.8-19.1 18.2-40 34.5-62.3 48.8s-46 26.4-70.6 36.1c-24.7 9.8-50.3 17.2-76.4 22-26.1 4.9-52.8 7.2-79.4 6.9l21.3-32.1c5.4 11.9 10.4 24 14.9 36.2 2.2 6.1 4.3 12.3 6.3 18.6 1 3.1 1.9 6.2 2.9 9.4l1.4 4.8 1.3 4.5 2.5 9.5 1.2 4.7 1.1 4.8c0.7 3.2 1.5 6.3 2.2 9.5l2 9.6c2.4 12.8 4.5 25.7 6 38.7s2.5 26 3.1 39.1c0.5 13.1 0.5 26.1 0.1 39.2-0.5 13.1-1.5 26.1-3 39.1s-3.5 25.9-6 38.8c-5 25.7-11.9 51-20.8 75.6-2.2 6.2-4.6 12.3-6.9 18.4-2.5 6-5 12.1-7.7 18.1-5.3 12-11 23.7-17.3 35.2-6.2 11.5-12.8 22.8-19.9 33.8s-14.6 21.8-22.4 32.2c-7.9 10.4-16.2 20.6-24.8 30.5s-17.7 19.3-27.1 28.5c-9.3 9.2-19.1 17.9-29.2 26.4-2.5 2.1-5 4.2-7.6 6.3l-7.7 6.1c-5.2 4-10.4 8-15.8 11.7-5.3 3.9-10.8 7.5-16.2 11.2l-8.3 5.3c-2.7 1.8-5.6 3.4-8.4 5.2-11.2 6.8-22.7 13.2-34.4 19-11.7 5.9-23.6 11.4-35.7 16.4s-24.4 9.6-36.9 13.6l-4.7 1.5-4.8 1.5-4.8 1.5c-1.6 0.5-3.3 1-4.7 1.4l-9 2.5-2.6 0.7-2.4 0.6-4.8 1.2c-12.9 3.1-25.9 5.6-39 7.6-13.1 1.9-26.4 3.1-39.6 3.8-13.3 0.6-26.5 0.7-39.8 0-26.5-1.3-52.9-5-78.6-11.3s-50.9-15-75-26-47.1-24.3-68.7-39.5l29.5-0.6c-44.2 33.7-94 60-146.5 77.8-26.3 8.9-53.2 15.7-80.5 20.4-27.3 4.6-55 7-82.7 7.2-55.4 0.4-110.8-8.1-163.4-25.3-26.3-8.6-51.9-19.3-76.4-31.9-12.3-6.3-24.3-13.1-36-20.4l-8.9-5.7-8.3-5.5-8.7-6.1-8.4-6.2c-22.3-16.7-42.9-35.7-61.4-56.6-18.5-20.8-34.9-43.5-48.8-67.7-13.9-24.1-25.4-49.6-34.2-76s-15-53.6-18.5-81.2c-3.4-27.6-4.1-55.5-2-83.2s7-55.2 14.6-81.9 17.9-52.6 30.7-77.2l2.4-4.6 2.5-4.6 2.5-4.5 2.6-4.5 2.6-4.5c0.9-1.5 1.9-3 2.8-4.5l2.8-4.5c0.9-1.5 1.8-2.8 2.7-4.2l2.7-4.1 0.8-1.2 0.7-1.1 1.5-2.2c2-2.9 4-5.7 6.1-8.5 4.2-5.6 8.5-11.1 13-16.5l14.4 31.1c-28.9-0.3-57.8-2.5-86.4-6.6-14.3-2-28.5-4.6-42.7-7.6s-28.1-6.5-42.1-10.4l-5.3-1.5-2.6-0.8-2.5-0.8-5-1.5-2.5-0.8-1.3-0.4-1.4-0.5-10.4-3.4c-3.4-1.2-6.9-2.4-10.3-3.6-13.7-5-27.1-10.5-40.3-16.6-26.4-12.3-51.8-26.8-75.7-43.3-23.9-16.6-46.4-35.2-67.1-55.6s-39.7-42.6-56.7-66.1c-16.9-23.6-31.9-48.6-44.6-74.7s-23.2-53.3-31.3-81.1c-8.2-27.8-13.8-56.4-17.1-85.2-0.4-3.6-0.8-7.2-1.1-10.8l-0.9-10.8-0.6-10.9c-0.2-3.6-0.3-7.2-0.4-10.9-0.4-14.5-0.1-29 0.7-43.5 1.7-28.9 6-57.7 12.5-85.9l2.6-10.5c0.9-3.5 1.9-7.1 2.9-10.6 0.5-1.7 1-3.6 1.5-5.3l1.5-5 1.5-5 0.4-1.5 0.4-1.3 0.8-2.6c2.3-6.9 4.7-13.8 7.3-20.6s5.4-13.5 8.4-20.2c11.9-26.6 26.7-51.9 44-75.3s37.1-45 59-64.1c21.9-19.2 45.8-36 71.2-50.1s52.3-25.5 80.1-34l-9.5 13.7c-2.7-51.1 2.4-102.6 15.1-152 6.3-24.7 14.5-49 24.4-72.5 10-23.5 21.7-46.2 35.1-68 13.4-21.7 28.4-42.4 44.9-61.9 16.5-19.4 34.5-37.6 53.7-54.3s39.7-31.9 61.3-45.4c10.8-6.8 21.8-13.1 33-19.1 5.6-3 11.3-5.8 17-8.6l4.3-2.1c1.5-0.7 2.9-1.4 4.3-2l4.3-1.9 2.1-1 1.2-0.5 1.1-0.5c46.8-20.4 97.5-31.9 148.4-33.4 50.9-1.6 102 6.7 149.7 23.9 47.7 17.3 92.1 43.6 129.9 77.1 18.9 16.8 36.3 35.3 51.7 55.3s28.9 41.5 40.3 64l-8.3-0.7c11.6-15.1 23.7-29.9 36.6-44s26.4-27.6 41.1-40.1c29.3-24.4 60.6-46.4 93.7-65.4 16.5-9.5 33.5-18.2 50.9-25.9 17.4-7.8 35.1-14.8 53.2-20.8s36.5-11.1 55.1-15c18.6-4 37.5-7 56.4-8.9s38-2.6 57-2.3 38.1 1.8 56.9 4.4c9.4 1.2 18.8 2.9 28.2 4.7 9.3 1.9 18.6 4 27.8 6.5 18.4 4.9 36.5 10.8 54.2 17.9s34.9 15.2 51.6 24.3c16.7 9.2 32.8 19.3 48.4 30.3 15.5 11 30.3 23 44.5 35.7 1.8 1.6 3.6 3.2 5.3 4.8l5.2 4.9c3.5 3.2 6.8 6.6 10.2 10 1.7 1.7 3.4 3.4 5 5.1l5 5.2c3.4 3.8 6.6 7.3 9.8 10.8z"/>
</svg>
