<?xml version="1.0" encoding="UTF-8" standalone="no"?>
<!-- Created with Inkscape (http://www.inkscape.org/) -->

<svg
   xmlns:dc="http://purl.org/dc/elements/1.1/"
   xmlns:cc="http://creativecommons.org/ns#"
   xmlns:rdf="http://www.w3.org/1999/02/22-rdf-syntax-ns#"
   xmlns:svg="http://www.w3.org/2000/svg"
   xmlns="http://www.w3.org/2000/svg"
   xmlns:sodipodi="http://sodipodi.sourceforge.net/DTD/sodipodi-0.dtd"
   xmlns:inkscape="http://www.inkscape.org/namespaces/inkscape"
   width="210mm"
   height="297mm"
   viewBox="0 0 210 297"
   version="1.1"
   id="svg7206"
   sodipodi:docname="runes.svg"
   inkscape:version="0.92.3 (2405546, 2018-03-11)">
  <defs
     id="defs7200" />
  <sodipodi:namedview
     id="base"
     pagecolor="#ffffff"
     bordercolor="#666666"
     borderopacity="1.0"
     inkscape:pageopacity="0.0"
     inkscape:pageshadow="2"
     inkscape:zoom="0.98994949"
     inkscape:cx="137.12984"
     inkscape:cy="488.55477"
     inkscape:document-units="mm"
     inkscape:current-layer="layer1"
     showgrid="false"
     inkscape:window-width="3200"
     inkscape:window-height="1675"
     inkscape:window-x="-13"
     inkscape:window-y="-13"
     inkscape:window-maximized="1" />
  <metadata
     id="metadata7203">
    <rdf:RDF>
      <cc:Work
         rdf:about="">
        <dc:format>image/svg+xml</dc:format>
        <dc:type
           rdf:resource="http://purl.org/dc/dcmitype/StillImage" />
      </cc:Work>
    </rdf:RDF>
  </metadata>
  <g
     inkscape:label="Calque 1"
     inkscape:groupmode="layer"
     id="layer1">
    <path
       style="fill:#a68839;fill-opacity:1;stroke:none;stroke-width:0.26458332px;stroke-linecap:butt;stroke-linejoin:miter;stroke-opacity:1"
       d="m 18.2758,109.55944 3.977548,5.20879 4.05997,0.56122 -1.172506,-3.24202 z"
       id="path7887"
       inkscape:connector-curvature="0"
       sodipodi:nodetypes="ccccc" />
    <path
       style="opacity:1;vector-effect:none;fill:#919191;fill-opacity:1;fill-rule:nonzero;stroke:none;stroke-width:3.18900299;stroke-linecap:butt;stroke-linejoin:miter;stroke-miterlimit:4;stroke-dasharray:none;stroke-dashoffset:0;stroke-opacity:1;paint-order:normal"
       d="m 230.9877,276.7996 c 4.90714,35.22308 -13.39757,46.30671 -28.3902,52.69797 -11.31752,4.82457 -33.26121,0.72085 -40.81045,-6.25418 -0.65881,-0.58157 -1.01691,-18.12624 -1.64523,-18.74797 -0.51675,-0.51135 -1.57604,18.70017 -2.07125,18.16271 -8.4308,-9.15021 -19.89221,-32.66331 -19.89222,-46.91556 0,-7.74316 46.62369,-2.71232 49.92987,-8.41732 8.55158,-14.75621 -12.29537,-39.23034 5.42898,-39.23034 24.57688,0 33.6286,21.27137 37.4505,48.70469 z"
       id="circle7875"
       inkscape:connector-curvature="0"
       sodipodi:nodetypes="sscccssss" />
    <path
       sodipodi:nodetypes="cccccc"
       inkscape:connector-curvature="0"
       id="path7807"
       d="m 225.27381,117.46131 0.18899,16.81994 -55.56251,66.33481 -28.53719,-49.13689 0,-9.82738 z"
       style="fill:#3a63a3;fill-opacity:1;stroke:none;stroke-width:0.26458332px;stroke-linecap:butt;stroke-linejoin:miter;stroke-opacity:1" />
    <path
       inkscape:connector-curvature="0"
       id="path7766"
       d="m 92.982141,80.419643 0.755952,73.138387 c -15.622952,6.66298 -29.673464,11.63255 -49.892854,23.24554 2.563711,3.36638 6.226975,8.22937 7.683999,10.08943 3.316864,4.0213 32.370788,-6.80435 47.95515,-19.43695 L 96.460579,92.144295 Z"
       style="fill:#a68839;fill-opacity:1;stroke:none;stroke-width:0.26458332px;stroke-linecap:butt;stroke-linejoin:miter;stroke-opacity:1"
       sodipodi:nodetypes="ccccccc" />
    <path
       style="fill:#c2a24e;fill-opacity:1;stroke:none;stroke-width:0.26458332px;stroke-linecap:butt;stroke-linejoin:miter;stroke-opacity:1"
       d="M 48.758927,59.630952 14.363095,98.940476 c 1.337726,3.532974 2.636684,7.073674 3.912705,10.618964 l 6.213543,3.54696 1.494064,5.42688 -3.389558,3.22137 c 6.471293,18.47191 12.812649,36.96974 21.25139,55.04892 17.238729,-4.58807 34.870054,-13.50354 49.892854,-23.24554 L 92.982141,80.419643 Z"
       id="path7751"
       inkscape:connector-curvature="0"
       sodipodi:nodetypes="cccccccccc" />
    <path
       style="fill:#a68839;fill-opacity:1;stroke:none;stroke-width:0.95864081px;stroke-linecap:butt;stroke-linejoin:miter;stroke-opacity:1"
       d="m 74.376458,83.415585 c -7.103543,-1.814223 -9.531475,6.535512 -14.03711,10.369141 -5.760667,-3.885424 -10.3672,-10.994451 -18.165873,-9.186818 -2.378096,4.029239 -0.746632,12.277862 -1.573713,17.939352 -0.440215,12.949 -0.876238,25.89816 -1.319007,38.84708 6.790594,2.81311 10.930072,-3.09701 15.70956,-6.90127 4.716865,-7.38393 9.346814,2.31578 14.012546,4.98241 2.039853,4.78495 12.349928,3.93259 11.088288,-1.11405 -1.026266,-6.74748 -8.52814,-10.51212 -12.214098,-16.03457 -2.726815,-5.63778 -9.76026,-6.06414 -13.251573,-0.9086 -7.040605,8.58867 -5.369409,0.014 -4.804944,-6.38029 1.485046,-3.4306 -1.61884,-17.674864 3.252658,-13.12541 3.926703,5.08783 10.970677,3.01049 13.701323,-2.185914 4.089933,-5.071432 11.268137,-8.827877 9.709364,-16.30692 -0.702473,0.002 -1.404947,0.0039 -2.107421,0.0059 z"
       id="path7891"
       inkscape:connector-curvature="0" />
    <path
       style="fill:#303030;fill-opacity:1;stroke:none;stroke-width:0.98321509px;stroke-linecap:butt;stroke-linejoin:miter;stroke-opacity:1"
       d="m 74.215748,83.368908 -4.308864,0.01189 -9.824853,11.400452 -12.729127,-10.095532 -5.179429,-0.08781 -1.84353,54.340222 4.038203,0.43894 14.221509,-11.93906 14.748227,12.64136 4.828286,-1.14124 -0.438938,-3.42367 -15.187164,-16.76737 -3.335899,-0.1754 -13.255858,11.06116 2.282466,-35.553753 8.164195,6.935153 4.301567,0.0877 13.343634,-14.133746 z"
       id="path7764"
       inkscape:connector-curvature="0"
       sodipodi:nodetypes="ccccccccccccccccccc" />
    <rect
       style="opacity:1;vector-effect:none;fill:#a68839;fill-opacity:1;fill-rule:nonzero;stroke:none;stroke-width:3;stroke-linecap:butt;stroke-linejoin:miter;stroke-miterlimit:4;stroke-dasharray:none;stroke-dashoffset:0;stroke-opacity:1;paint-order:normal"
       id="rect7768"
       width="6.6817379"
       height="6.6817379"
       x="46.371262"
       y="70.756348"
       rx="1" />
    <rect
       rx="1"
       y="107.97949"
       x="-25.870058"
       height="6.6817379"
       width="6.6817379"
       id="rect7770"
       style="opacity:1;vector-effect:none;fill:#a68839;fill-opacity:1;fill-rule:nonzero;stroke:none;stroke-width:3;stroke-linecap:butt;stroke-linejoin:miter;stroke-miterlimit:4;stroke-dasharray:none;stroke-dashoffset:0;stroke-opacity:1;paint-order:normal"
       transform="rotate(-27.072081)" />
    <rect
       transform="rotate(-27.072081)"
       style="opacity:1;vector-effect:none;fill:#a68839;fill-opacity:1;fill-rule:nonzero;stroke:none;stroke-width:3;stroke-linecap:butt;stroke-linejoin:miter;stroke-miterlimit:4;stroke-dasharray:none;stroke-dashoffset:0;stroke-opacity:1;paint-order:normal"
       id="rect7772"
       width="6.6817379"
       height="6.6817379"
       x="14.079867"
       y="145.50725"
       rx="1" />
    <rect
       rx="1"
       y="121.18284"
       x="111.65524"
       height="6.6817379"
       width="6.6817379"
       id="rect7774"
       style="opacity:1;vector-effect:none;fill:#a68839;fill-opacity:1;fill-rule:nonzero;stroke:none;stroke-width:3;stroke-linecap:butt;stroke-linejoin:miter;stroke-miterlimit:4;stroke-dasharray:none;stroke-dashoffset:0;stroke-opacity:1;paint-order:normal"
       transform="rotate(23.336819)" />
    <path
       style="fill:#7c9cd0;fill-opacity:1;stroke:none;stroke-width:0.26458332px;stroke-linecap:butt;stroke-linejoin:miter;stroke-opacity:1"
       d="m 171.4122,54.150296 33.94094,39.895495 -0.3766,22.429969 5.90886,-15.92715 14.38841,16.9127 -57.07441,79.56398 -26.8363,-55.3735 13.66673,-57.057851 18.00154,0.716892 z"
       id="path7790"
       inkscape:connector-curvature="0"
       sodipodi:nodetypes="cccccccccc" />
    <path
       style="fill:#3a63a3;fill-opacity:1;stroke:none;stroke-width:0.92985928px;stroke-linecap:butt;stroke-linejoin:miter;stroke-opacity:1"
       d="m 186.94354,98.421317 c -6.55644,10.167143 -15.19229,19.486233 -25.9043,25.041013 -3.02366,4.80983 2.50615,10.33634 7.57321,9.41812 5.50976,1.02523 13.86255,1.40848 4.50075,5.78726 -5.5734,4.82962 -12.63608,8.29951 -17.45286,13.86494 -1.85756,3.64552 2.22301,9.67026 6.20703,6.58593 11.41618,-8.27089 25.39671,-13.10364 35.52148,-23.05468 2.72551,-3.28588 -1.10135,-6.57812 -4.73197,-6.11697 -5.51065,-1.5002 -11.97961,-2.50984 -17.01998,-4.1096 7.25196,-8.25344 17.01622,-13.64054 26.00977,-19.72851 -3.42218,-4.42036 -8.04728,-8.779121 -14.03516,-8.673831 l -0.56074,0.827992 z"
       id="path13402"
       inkscape:connector-curvature="0" />
    <path
       style="fill:#303030;fill-opacity:1;stroke:none;stroke-width:0.92985928px;stroke-linecap:butt;stroke-linejoin:miter;stroke-opacity:1"
       d="m 188.57422,97.134776 c 4.42888,0.292401 7.36712,3.007154 10.04578,6.143724 -9.07618,6.01301 -18.61941,11.67573 -25.156,19.59346 -0.5885,3.18092 -4.47995,0.88191 22.58228,7.55511 3.07582,3.86855 -23.57854,16.43856 -35.36785,24.65787 -2.6162,2.06542 -4.43362,-3.19406 -2.82278,-4.73228 0.0829,-0.33213 25.156,-19.01233 25.156,-19.01233 l -18.92928,-3.81906 c -1.95065,-1.82653 -2.47679,-3.65303 -1.32838,-5.47953 9.37357,-4.26939 17.99577,-13.11337 25.82023,-24.906964 z"
       id="path7805"
       inkscape:connector-curvature="0"
       sodipodi:nodetypes="cccccccccc" />
    <rect
       rx="1"
       y="91.356049"
       x="161.08704"
       height="6.6817379"
       width="6.6817379"
       id="rect7809"
       style="opacity:1;vector-effect:none;fill:#3a63a3;fill-opacity:1;fill-rule:nonzero;stroke:none;stroke-width:3;stroke-linecap:butt;stroke-linejoin:miter;stroke-miterlimit:4;stroke-dasharray:none;stroke-dashoffset:0;stroke-opacity:1;paint-order:normal" />
    <rect
       style="opacity:1;vector-effect:none;fill:#3a63a3;fill-opacity:1;fill-rule:nonzero;stroke:none;stroke-width:3;stroke-linecap:butt;stroke-linejoin:miter;stroke-miterlimit:4;stroke-dasharray:none;stroke-dashoffset:0;stroke-opacity:1;paint-order:normal"
       id="rect7811"
       width="6.6817379"
       height="6.6817379"
       x="50.427261"
       y="195.16859"
       rx="1"
       transform="rotate(-33.345191)" />
    <rect
       rx="1"
       y="22.271191"
       x="241.5262"
       height="6.6817379"
       width="6.6817379"
       id="rect7813"
       style="opacity:1;vector-effect:none;fill:#3a63a3;fill-opacity:1;fill-rule:nonzero;stroke:none;stroke-width:3;stroke-linecap:butt;stroke-linejoin:miter;stroke-miterlimit:4;stroke-dasharray:none;stroke-dashoffset:0;stroke-opacity:1;paint-order:normal"
       transform="rotate(32.985298)" />
    <path
       style="fill:#58be5e;fill-opacity:1;stroke:none;stroke-width:0.20848231px;stroke-linecap:butt;stroke-linejoin:miter;stroke-opacity:1"
       d="m 22.829565,250.49511 0.658532,24.34267 17.333246,39.004 -16.805469,-19.49465 0.253069,9.35467 -4.758269,21.62877 72.185867,5.61266 -5.974002,-124.81486 -38.955405,34.60118 z"
       id="path7815"
       inkscape:connector-curvature="0"
       sodipodi:nodetypes="cccccccccc" />
    <path
       inkscape:connector-curvature="0"
       id="path7817"
       d="m 85.722539,206.12837 5.974002,124.81486 -72.185867,-5.61266 22.490202,7.75082 49.939156,6.1472 8.857378,-4.61365 -2.599048,-25.88278 1.634622,-39.53992 L 96.12236,221.63 Z"
       style="fill:#3b9740;fill-opacity:1;stroke:none;stroke-width:0.20970689px;stroke-linecap:butt;stroke-linejoin:miter;stroke-opacity:1"
       sodipodi:nodetypes="cccccccccc" />
    <path
       style="fill:#3b9740;stroke:none;stroke-width:0.26458332px;stroke-linecap:butt;stroke-linejoin:miter;stroke-opacity:1;fill-opacity:1"
       d="m 23.876485,274.83779 1.380485,12.54051 9.488068,17.90705 8.157252,8.55644 z"
       id="path7819"
       inkscape:connector-curvature="0" />
    <path
       style="fill:#3b9740;fill-opacity:1;stroke:none;stroke-width:1.08376956px;stroke-linecap:butt;stroke-linejoin:miter;stroke-opacity:1"
       d="m 61.744513,249.48308 c -8.258006,-2.95696 -6.458703,5.15536 -6.508435,10.82584 -0.163327,19.11209 -0.32568,38.22418 -0.489612,57.33627 5.906438,-0.45853 9.221683,1.67415 15.384766,0.95898 -0.09534,-23.50261 -0.193618,-47.0052 -0.289063,-70.50781 -2.213669,0.72069 -8.161663,-1.51737 -8.097656,1.38672 z"
       id="path13406"
       inkscape:connector-curvature="0" />
    <path
       style="fill:#303030;fill-opacity:1;stroke:none;stroke-width:1.08376956px;stroke-linecap:butt;stroke-linejoin:miter;stroke-opacity:1"
       d="m 56.272488,250.00487 h 3.558027 l 1.094816,0.82107 h 1.779034 v -2.05269 h 4.105313 l 0.273622,66.50746 h -4.652844 v -1.91589 h -1.778993 v 0.95793 h -4.926506 z"
       id="path7832"
       inkscape:connector-curvature="0" />
    <rect
       transform="rotate(32.985298)"
       style="opacity:1;vector-effect:none;fill:#3b9740;fill-opacity:1;fill-rule:nonzero;stroke:none;stroke-width:3;stroke-linecap:butt;stroke-linejoin:miter;stroke-miterlimit:4;stroke-dasharray:none;stroke-dashoffset:0;stroke-opacity:1;paint-order:normal"
       id="rect7834"
       width="6.6817379"
       height="6.6817379"
       x="190.69786"
       y="157.09879"
       rx="1" />
    <rect
       rx="1"
       y="269.12009"
       x="-33.552891"
       height="6.6817379"
       width="6.6817379"
       id="rect7836"
       style="opacity:1;vector-effect:none;fill:#3b9740;fill-opacity:1;fill-rule:nonzero;stroke:none;stroke-width:3;stroke-linecap:butt;stroke-linejoin:miter;stroke-miterlimit:4;stroke-dasharray:none;stroke-dashoffset:0;stroke-opacity:1;paint-order:normal"
       transform="rotate(-14.134838)" />
    <rect
       transform="rotate(6.2134965)"
       style="opacity:1;vector-effect:none;fill:#3b9740;fill-opacity:1;fill-rule:nonzero;stroke:none;stroke-width:3;stroke-linecap:butt;stroke-linejoin:miter;stroke-miterlimit:4;stroke-dasharray:none;stroke-dashoffset:0;stroke-opacity:1;paint-order:normal"
       id="rect7838"
       width="6.6817379"
       height="6.6817379"
       x="108.73641"
       y="301.37567"
       rx="1" />
    <path
       style="opacity:1;vector-effect:none;fill:#b4b4b4;fill-opacity:1;fill-rule:nonzero;stroke:none;stroke-width:3.26537228;stroke-linecap:butt;stroke-linejoin:miter;stroke-miterlimit:4;stroke-dasharray:none;stroke-dashoffset:0;stroke-opacity:1;paint-order:normal"
       d="m 226.91183,272.34192 c 0,29.1172 -19.9235,52.72135 -44.50038,52.72135 -7.65677,0 -20.90506,-3.13034 -21.1536,-6.32598 l -1.11603,-14.34902 -2.98613,11.36741 c -0.49306,1.87696 -19.24461,-25.40848 -19.24461,-43.41376 l 7.6234,-1.12413 -7.01735,-7.59736 c 1.57098,-11.18026 6.11154,-21.17064 12.62885,-28.79482 l 3.47897,3.5248 2.761,-9.60939 c 7.13062,-5.75576 15.7464,-9.12046 25.0255,-9.12046 24.57688,0 44.50038,23.60416 44.50038,52.72136 z"
       id="path7873"
       inkscape:connector-curvature="0"
       sodipodi:nodetypes="ssscsccccccss" />
    <path
       style="fill:#919191;fill-opacity:1;stroke:none;stroke-width:1.13435471px;stroke-linecap:butt;stroke-linejoin:miter;stroke-opacity:1"
       d="m 171.96212,239.96501 c 0.20622,24.73933 -0.992,49.64907 0.0604,74.28567 4.09037,0.40772 16.0403,2.97759 13.51412,-5.37888 -1.63647,-8.7124 2.99972,-10.22655 7.96435,-15.96218 4.14525,-6.25495 11.39798,-11.27185 13.71936,-18.25359 1.25863,-7.64884 -7.97323,-11.74624 -11.52661,-17.76573 -3.63325,-6.71112 -12.28472,-8.07526 -10.30154,-16.0583 2.71302,-4.28261 -15.21528,-4.80687 -13.43021,-0.86699 z m 20.6355,32.43765 c -6.4219,9.65638 -7.66844,5.50659 -6.87846,-4.07601 -1.78314,-7.5104 5.1718,3.46108 6.87846,4.07601 z"
       id="path13414"
       inkscape:connector-curvature="0" />
    <g
       id="g7868"
       style="fill:#303030;fill-opacity:1"
       transform="matrix(4.2873249,0,0,4.2873249,-604.05281,-877.41101)">
      <path
         style="fill:#303030;fill-opacity:1;stroke:none;stroke-width:0.99999994px;stroke-linecap:butt;stroke-linejoin:miter;stroke-opacity:1"
         d="m 684.88281,983.49805 -0.3789,63.51365 0.12695,0.5039 8.08203,-0.3789 0.63086,-13.6367 H 696.5 l 15.4043,-18.5625 0.2539,-3.9141 -16.41601,-18.81246 -2.9043,0.125 -0.125,-8.71289 z m 7.95508,17.29885 10.98633,11.2383 -10.48047,11.4902 z"
         transform="scale(0.26458333)"
         id="path7862"
         inkscape:connector-curvature="0" />
    </g>
    <rect
       rx="1"
       y="90.688522"
       x="282.77771"
       height="6.6817379"
       width="6.6817379"
       id="rect7879"
       style="opacity:1;vector-effect:none;fill:#919191;fill-opacity:1;fill-rule:nonzero;stroke:none;stroke-width:3;stroke-linecap:butt;stroke-linejoin:miter;stroke-miterlimit:4;stroke-dasharray:none;stroke-dashoffset:0;stroke-opacity:1;paint-order:normal"
       transform="rotate(32.985298)" />
    <rect
       transform="rotate(-17.189334)"
       style="opacity:1;vector-effect:none;fill:#919191;fill-opacity:1;fill-rule:nonzero;stroke:none;stroke-width:3;stroke-linecap:butt;stroke-linejoin:miter;stroke-miterlimit:4;stroke-dasharray:none;stroke-dashoffset:0;stroke-opacity:1;paint-order:normal"
       id="rect7883"
       width="6.6817379"
       height="6.6817379"
       x="62.798843"
       y="311.10062"
       rx="1" />
    <rect
       rx="1"
       y="282.99179"
       x="228.75995"
       height="6.6817379"
       width="6.6817379"
       id="rect7885"
       style="opacity:1;vector-effect:none;fill:#919191;fill-opacity:1;fill-rule:nonzero;stroke:none;stroke-width:3;stroke-linecap:butt;stroke-linejoin:miter;stroke-miterlimit:4;stroke-dasharray:none;stroke-dashoffset:0;stroke-opacity:1;paint-order:normal"
       transform="rotate(6.5931031)" />
    <g
       transform="matrix(4.2873249,0,0,4.2873249,-604.05281,-877.41101)"
       style="fill:#303030;fill-opacity:1"
       id="g13416" />
  </g>
</svg>
